<?xml version="1.0" encoding="UTF-8"?>
<svg xmlns="http://www.w3.org/2000/svg" version="1.1" viewBox="0 0 2088.08 1825.34">
  <defs>
    <style>
      .cls-1 {
        fill: #fff;
      }

      .cls-2 {
        fill: #192958;
      }

      .cls-3 {
        fill: #ab0520;
      }
    </style>
  </defs>
  <!-- Generator: Adobe Illustrator 28.6.0, SVG Export Plug-In . SVG Version: 1.2.0 Build 709)  -->
  <g>
    <g id="Block_A">
      <g id="normal">
        <polygon class="cls-1" points="1103.51 1050.9 967.95 693.88 827.62 1050.9 965.24 1050.9 1103.51 1050.9"/>
        <path class="cls-3" d="M786.07,1158.76h359.7l88.4,227.16s6.87,20.42-1.29,34.02c-11.64,19.39-23.15,21.63-27.1,21.77h284.19c-81.68,0-131.97-123.84-131.97-123.84l-392.45-1017.65-391.79,1017.65s-50.32,123.84-131.95,123.84h284.16c-3.93-.14-15.41-2.37-26.97-21.77-8.16-13.6-1.43-34.02-1.43-34.02l88.5-227.16ZM967.95,693.88l135.56,357.02h-275.91l140.34-357.02Z"/>
        <polygon class="cls-2" points="1374.21 578.04 1459.7 578.04 1459.7 161.35 965.91 161.35 472.08 161.35 472.08 578.04 557.59 578.04 285.41 1303.43 115.59 1303.43 115.59 1720.29 871.77 1720.29 871.77 1440.71 737.26 1440.71 737.26 1583.3 258.19 1583.3 258.19 1436.7 372.51 1436.7 759.02 440.5 612.04 440.5 612.04 298.95 965.91 298.95 1319.76 298.95 1319.76 440.5 1172.79 440.5 1559.27 1436.7 1673.61 1436.7 1673.61 1583.3 1194.54 1583.3 1194.54 1440.71 1060.04 1440.71 1060.04 1720.29 1816.19 1720.29 1816.19 1303.43 1646.41 1303.43 1374.21 578.04"/>
        <path class="cls-1" d="M1691.93,1236.88l-221.74-592.6,55.65-.44V95.11H405.83v548.73h56.37l-223.11,593.04H49.74v549.72h1832.28v-549.72h-190.09ZM699,1419.95c11.57,19.39,23.04,21.61,26.99,21.77h1.56s-.64.02-1.56,0h-284.18c81.63,0,131.95-123.84,131.95-123.84l391.77-1017.63,392.46,1017.63s50.28,123.84,131.97,123.84h-284.19c-.92.02-1.56,0-1.56,0h1.56c3.95-.16,15.46-2.37,27.08-21.77,8.18-13.6,1.31-34.02,1.31-34.02l-88.4-227.16h-359.68l-88.5,227.16s-6.75,20.42,1.42,34.02M1816.19,1720.29h-756.15v-279.59h134.5v142.59h479.07v-146.58h-114.34l-386.49-996.24h147v-141.53h-707.74v141.53h146.99l-386.51,996.24h-114.33v146.58h479.07v-142.59h134.52v279.59H115.59v-416.87h169.82l272.19-725.38h-85.51V161.35h987.61v416.69h-85.47l272.19,725.38h169.78v416.87Z"/>
      </g>
      <path class="cls-1" d="M2010.03,1594.67c31.34,0,57.46,24.91,57.46,57.27s-26.12,57.22-57.46,57.22-57.39-25.07-57.39-57.22,26.1-57.27,57.39-57.27M2010.03,1720.29c38.27,0,68.56-30.27,68.56-68.35s-30.29-68.38-68.56-68.38-68.54,30.24-68.54,68.38,30.29,68.35,68.54,68.35M2021.91,1655.41c10.22-.35,20.51-5.94,20.51-21.07,0-16.18-12.53-20.35-26.45-20.35h-32.36v76.87h11.13v-35.46h14.27l19.65,35.46h12.71l-19.46-35.46ZM2013.9,1625.12c9.22,0,17.39.72,17.39,10.43,0,10.45-14.27,8.68-24.7,8.68h-11.85v-19.11h19.16Z"/>
    </g>
  </g>
</svg>