<?xml version="1.0" encoding="UTF-8"?>
<svg id="Layer_1" data-name="Layer 1" xmlns="http://www.w3.org/2000/svg" version="1.1" viewBox="0 0 1069.84 2065.08">
  <defs>
    <style>
      .cls-1 {
        fill: #ffca38;
      }

      .cls-1, .cls-2 {
        stroke-width: 0px;
      }

      .cls-2 {
        fill: #8c0b42;
      }
    </style>
  </defs>
  <g id="Pitchfork">
    <g>
      <path class="cls-2" d="M1016.36,390.99c-269.9,115.47-345.17,314.55-345.33,315.07l-3.05,8.08,7.51-4.42c21.69-12.76,61.09-34.2,88.1-45.33-31.53,67.09-77.56,196.38-96.13,288.09-1.64,8.12-4.32,14.95-5.72,21.41-.92,4.22-1.7,6.81-3.39,9.99-1.95,3.83-5.49,6.82-9.72,10.17-3.37,2.8-21.78,11.84-21.82,11.87-.08.08-4.15,2.2-8.57,4.31-2.28,1.08-4.56,2.15-6.44,2.95-.1.04-.25.08-.3.12l-1.02-16.74c-6.24-157.47-8.35-256.35-8.31-330.2,0-79.12,2.36-129.61,4.58-193.19,17.42,14.23,70.59,58.23,70.67,58.23l5.64,4.75-.61-7.38c-10.6-121.48-46.44-237.66-70.76-303.95-8.03-21.76-16.1-40.78-23.89-57.27-26.31-55.92-49.26-99.92-50.3-101.95l-2.73-5.3-2.77,5.3c-1.05,2.03-24,46.03-50.37,101.95-7.72,16.49-15.8,35.51-23.83,57.27-24.27,66.29-60.11,182.47-70.74,303.95l-.68,7.33,5.7-4.7c.05-.04,53.24-44.04,70.7-58.23,2.19,63.58,4.58,114.07,4.58,193.19,0,73.86-2.07,172.74-8.35,330.29l-1.02,16.66c-5.48-2.27-15.2-7.3-15.2-7.3-.1-.08-18.52-9.16-21.94-11.96-4.24-3.35-7.76-6.34-9.73-10.17-1.62-3.18-2.41-5.77-3.33-9.95-1.39-6.5-4.16-13.32-5.76-21.44-18.61-91.71-64.57-221-96.1-288.09,26.98,11.13,66.42,32.56,88.08,45.33l7.53,4.42-3.09-8.08c-.15-.53-75.44-199.6-345.35-315.07l-8.69-3.7,4.89,8.17s33.16,55.36,70.55,127.98c37.5,72.54,79.09,162.26,95.87,230.29,15.63,63.14,63.65,267.75,63.65,441.1,0,17.41-.47,34.55-1.55,51.17l5.82,1.61c.07-.06,9.17-17.79,20.75-38.51,9.78-17.59,21.44-37.31,30.42-49.83l57.26,451.77,6.14-.15,21.62-338.23,111.83,729.13h6.12l111.86-729.17,21.6,338.27,6.16.15,57.3-451.77c8.95,12.51,20.58,32.24,30.37,49.83,11.59,20.72,20.74,38.44,20.74,38.51l5.83-1.61c-1.06-16.62-1.54-33.76-1.54-51.17,0-173.34,48.03-378,63.63-441.1,16.8-68.04,58.41-157.75,95.83-230.29,37.45-72.61,70.59-127.9,70.63-127.98l4.9-8.21-8.75,3.74ZM534.78,1880.71l-51.5-464.06h102.93l-51.43,464.06ZM592.2,1363.6l-3.81,37.59h-107.28l-3.8-37.59-.16-1.63h115.25l-.2,1.63ZM489.46,1346.55v-28.98h90.61v28.98h-90.61ZM592.53,1302.19h-115.5v-39.66h115.5v39.66ZM960.5,453.89c-136.35,208.17-171.98,438.77-199.08,664.12l-.77,6.58-30.25-26.39-137.9,70.31-.29,77.71h-114.88l-.3-77.71-137.85-70.31-30.33,26.39-.76-6.58c-27.15-225.35-62.72-455.95-199.07-664.12l-2.05-3.14,3.42,1.67c10.28,4.97,19.96,9.92,29.33,14.91,83.46,44.28,132.74,89.71,196.81,178.24l.18.15,15.15,18.01c-16.6-7.77-39.62-18.97-62.2-27.21-7.95-2.91-23.41-7.26-23.41-7.26,3.19,5.31,9.5,16.15,11.71,20.21,48.41,89.32,80.85,249.38,96.85,328.37,1.86,9.03,3.39,16.94,4.81,23.36.97,4.66,2.61,7.45,5.08,10.8,2.99,3.9,7.06,6.12,8.66,7.08l41.62,18.97,19.79,9.1c1.71.75,4.33,1.68,7.63,1.8h.28c3.11,0,7.72-.89,11.64-5.03.34-.35.49-.67.81-1.07,3.63-4.1,4.68-7.92,5.09-13.27.61-6.62,1.14-13.63,1.64-20.81,1.57-21.12,2.77-44.48,3.8-69.47,5.38-132.29,4.09-308.24,3.21-415.82-.3-35.62-.56-66.39-.56-89.67v-.44l.36-.27c7.11-7.42,18.27-18.7,21.47-22.01-4.44,1.68-13.39,5.9-24.96,12.92-6.03,3.7-12.84,8.14-20.17,13.31-10.01,7.18-20.95,15.87-32.12,26.02-2.65,2.44-5.35,4.99-8.01,7.54l-2.39,2.34.68-3.3c13.81-70.66,23.82-124.33,38.88-175.33,6.4-21.58,13.65-42.72,22.52-64.45,12.62-31.05,28.42-75.66,49.41-112.32l.82-1.38.77,1.38c21.05,36.67,36.77,81.28,49.47,112.32,8.79,21.73,16.12,42.87,22.46,64.45,15.04,51.01,25.12,104.67,38.93,175.33l.62,3.3-2.36-2.34c-2.67-2.55-5.32-5.1-8.02-7.54-11.18-10.16-22.11-18.85-32.12-26.02-7.34-5.18-14.09-9.61-20.17-13.31-11.61-7.01-20.48-11.24-24.97-12.92,3.25,3.31,14.37,14.59,21.52,22.01l.3.27v.44c.07,23.28-.2,54.05-.49,89.67-.91,107.58-2.18,283.53,3.17,415.82,1.05,24.99,2.25,48.35,3.79,69.47.56,7.17,1.08,14.19,1.64,20.81.41,5.35,1.52,9.17,5.1,13.27.32.4.56.72.82,1.07,3.93,4.15,8.51,5.03,11.63,5.03h.28c3.29-.12,5.92-1.05,7.59-1.8l19.82-9.1,41.58-18.97c1.69-.96,5.76-3.18,8.64-7.08,2.56-3.36,4.2-6.14,5.18-10.8,1.35-6.42,2.95-14.32,4.77-23.36,16-78.99,48.48-239.05,96.84-328.37,2.25-4.06,8.54-14.91,11.72-20.21,0,0-15.43,4.35-23.42,7.26-22.57,8.25-45.55,19.44-62.15,27.21l15.15-18.01.15-.15c64.06-88.53,113.38-133.97,196.79-178.24,9.39-4.98,19.06-9.93,29.34-14.91l3.4-1.67-2.05,3.14Z"/>
      <path class="cls-1" d="M929.81,467.32c-83.41,44.28-132.73,89.71-196.79,178.24l-.15.15-15.15,18.01c16.6-7.77,39.58-18.97,62.15-27.22,7.99-2.91,23.42-7.26,23.42-7.26-3.18,5.31-9.47,16.15-11.72,20.21-48.36,89.32-80.84,249.38-96.84,328.37-1.82,9.03-3.42,16.94-4.77,23.35-.98,4.66-2.63,7.45-5.18,10.8-2.89,3.9-6.95,6.12-8.64,7.08l-41.58,18.97-19.82,9.1c-1.67.75-4.3,1.68-7.59,1.8h-.28c-3.12,0-7.71-.89-11.63-5.03-.27-.35-.51-.67-.82-1.07-3.58-4.1-4.68-7.92-5.1-13.27-.56-6.62-1.08-13.63-1.64-20.81-1.53-21.12-2.73-44.48-3.79-69.47-5.35-132.29-4.08-308.24-3.17-415.82.3-35.62.56-66.39.49-89.67v-.44l-.3-.27c-7.16-7.42-18.27-18.7-21.52-22.01,4.48,1.68,13.36,5.9,24.97,12.91,6.08,3.7,12.84,8.14,20.17,13.31,10.01,7.18,20.94,15.87,32.12,26.02,2.7,2.43,5.35,4.99,8.02,7.54l2.36,2.35-.62-3.3c-13.81-70.66-23.9-124.33-38.93-175.33-6.34-21.58-13.67-42.72-22.46-64.45-12.69-31.05-28.42-75.66-49.47-112.32l-.77-1.39-.82,1.39c-20.99,36.67-36.8,81.27-49.41,112.32-8.87,21.73-16.12,42.87-22.52,64.45-15.06,51.01-25.07,104.67-38.88,175.33l-.68,3.3,2.39-2.35c2.67-2.55,5.36-5.1,8.02-7.54,11.17-10.16,22.12-18.85,32.12-26.02,7.33-5.17,14.13-9.61,20.17-13.31,11.57-7.01,20.52-11.24,24.96-12.91-3.2,3.31-14.36,14.59-21.47,22.01l-.36.27v.44c0,23.28.25,54.05.56,89.67.88,107.58,2.17,283.53-3.21,415.82-1.02,24.99-2.23,48.35-3.79,69.47-.51,7.17-1.03,14.19-1.64,20.81-.41,5.35-1.46,9.17-5.09,13.27-.32.41-.48.72-.81,1.07-3.92,4.14-8.54,5.03-11.64,5.03h-.28c-3.3-.12-5.92-1.05-7.63-1.8l-19.79-9.1-41.62-18.97c-1.6-.96-5.67-3.18-8.66-7.08-2.47-3.36-4.1-6.15-5.08-10.8-1.42-6.42-2.95-14.32-4.81-23.35-16-78.99-48.44-239.05-96.85-328.37-2.21-4.06-8.52-14.91-11.71-20.21,0,0,15.46,4.34,23.41,7.26,22.58,8.25,45.6,19.45,62.2,27.22l-15.15-18.01-.18-.15c-64.06-88.53-113.35-133.97-196.81-178.24-9.36-4.98-19.05-9.93-29.33-14.91l-3.42-1.67,2.05,3.14c136.35,208.17,171.92,438.77,199.07,664.12l.76,6.58,30.33-26.39,137.86,70.31.3,77.71h114.88l.29-77.71,137.9-70.31,30.25,26.39.77-6.58c27.11-225.35,62.73-455.95,199.08-664.12l2.05-3.14-3.4,1.67c-10.28,4.97-19.95,9.92-29.34,14.91"/>
      <polygon class="cls-1" points="477.02 1262.53 477.02 1302.19 534.78 1302.19 592.53 1302.19 592.53 1262.53 534.78 1262.53 477.02 1262.53"/>
      <polygon class="cls-1" points="483.28 1416.66 534.78 1880.71 586.21 1416.66 534.78 1416.66 483.28 1416.66"/>
      <polygon class="cls-1" points="534.78 1361.97 477.43 1361.97 477.14 1361.97 477.3 1363.6 481.11 1401.19 534.78 1401.19 588.39 1401.19 592.2 1363.6 592.4 1361.97 592.09 1361.97 534.78 1361.97"/>
      <polygon class="cls-1" points="580.07 1346.55 580.07 1317.57 561.31 1317.57 534.78 1317.57 508.21 1317.57 489.46 1317.57 489.46 1346.55 534.78 1346.55 580.07 1346.55"/>
      <path class="cls-2" d="M684.36,1646.2c-2.72,2.64-5.99,3.96-9.81,3.96s-7.27-1.35-9.96-4.05c-2.7-2.7-4.05-6.02-4.05-9.96s1.46-7.49,4.37-10.21c2.74-2.54,5.95-3.81,9.64-3.81s7.17,1.37,9.9,4.11c2.74,2.74,4.11,6.04,4.11,9.9s-1.41,7.33-4.2,10.06M666.32,1628.03c-2.23,2.28-3.35,4.99-3.35,8.12s1.14,6,3.41,8.27c2.25,2.27,4.98,3.4,8.18,3.4s5.9-1.14,8.16-3.42c2.25-2.29,3.38-5.04,3.38-8.25s-1.12-5.82-3.37-8.12c-2.27-2.33-4.99-3.5-8.17-3.5s-5.96,1.17-8.23,3.5M668.4,1643.94v-15.53c.97,0,2.41,0,4.33.01,1.92,0,2.99.02,3.2.02,1.23.09,2.25.36,3.06.8,1.38.76,2.07,2,2.07,3.71,0,1.3-.36,2.25-1.09,2.83-.73.58-1.63.92-2.69,1.04.98.2,1.71.5,2.21.89.91.74,1.37,1.9,1.37,3.49v1.39c0,.15,0,.3.03.45.02.15.06.3.11.46l.14.44h-3.88c-.13-.49-.21-1.21-.26-2.15-.04-.94-.13-1.57-.26-1.91-.2-.54-.58-.92-1.14-1.14-.3-.13-.76-.21-1.39-.25l-.89-.06h-.85v5.5h-4.07ZM675.82,1631.47c-.56-.22-1.34-.32-2.36-.32h-.99v4.5h1.58c.95,0,1.69-.19,2.22-.57.53-.38.8-.99.8-1.84s-.42-1.44-1.25-1.77"/>
    </g>
  </g>
</svg>