<svg xmlns="http://www.w3.org/2000/svg" width="180" height="180" fill="none"><path fill="#154734" d="M83.485 95.626v-4.024l6.556.009V76.063H61.39v15.548h6.556v4.015h15.539Z"/><path fill="#154734" d="M146.986 91.584V76.071h-28.643v15.513h6.556v45.308c0 1.152-.131 1.589-.655 2.113l-3.212 3.212c-.533.541-.926.664-2.113.664H89.456c-1.178 0-1.58-.123-2.112-.664l-3.196-3.195a2.45 2.45 0 0 1-.663-2.112v-23.318h6.984c4.758 0 7.857 0 11.61-3.71l6.181-6.181c3.728-3.718 3.728-6.791 3.728-11.444v-16.84c0-4.653 0-7.726-3.71-11.428l-2.139-2.138 2.121-2.13c3.728-3.72 3.728-6.792 3.728-11.445v-6.94c0-4.645 0-7.726-3.71-11.428l-6.172-6.207C98.396 20 95.261 20 90.504 20H31.918v15.54h7.49v62.513h-7.49v15.539h36.028v23.326c0 4.749 0 7.857 3.719 11.611l6.18 6.172c3.71 3.727 6.722 3.727 11.28 3.727h30.135c4.548 0 7.56 0 11.261-3.71l6.207-6.207c3.701-3.71 3.701-6.844 3.701-11.593V95.076l-7.769-3.492h14.326ZM90.504 35.54a2.487 2.487 0 0 1 2.121.655l3.195 3.204c.541.532.664.934.664 2.112v6.591c0 1.188-.123 1.59-.664 2.122l-3.195 3.195c-.524.523-.96.663-2.121.663H54.947V39.048l-7.77-3.492 43.327-.017ZM54.947 98.053V69.62h35.557c1.16 0 1.597.131 2.121.655l3.195 3.195c.541.541.664.934.664 2.121v16.491c0 1.187-.123 1.58-.664 2.121l-3.195 3.195a2.346 2.346 0 0 1-1.93.655H54.948ZM138.064 152.78a3.297 3.297 0 0 1 3.218 3.939 3.291 3.291 0 0 1-6.518-.648 3.272 3.272 0 0 1 .964-2.332 3.276 3.276 0 0 1 2.336-.959Zm0 7.22a3.93 3.93 0 1 0-3.938-3.929 3.909 3.909 0 0 0 1.146 2.789 3.892 3.892 0 0 0 2.792 1.14Zm.681-3.728a1.11 1.11 0 0 0 .863-.334 1.108 1.108 0 0 0 .315-.87c0-.935-.716-1.17-1.519-1.17h-1.859v4.417h.637v-2.043h.82l1.135 2.043h.725l-1.117-2.043Zm-.463-1.746c.532 0 1.004 0 1.004.603 0 .602-.821.497-1.423.497h-.681v-1.1h1.1Z"/></svg>