<svg xmlns="http://www.w3.org/2000/svg" width="180" height="180" fill="none"><path fill="#003DA5" fill-rule="evenodd" d="M23 89.703C23 65.567 53.221 46 90.498 46 127.78 46 158 65.568 158 89.703c0 24.137-30.221 43.704-67.502 43.704C53.221 133.407 23 113.84 23 89.703Zm92.249-22.742c-1.872-.74-7.441-1.822-9.061-2.036h.001c.06-.52.174-1.384.31-2.417.343-2.604.826-6.276.951-8.178 12.096 2.026 23.641 6.812 32.936 14.302-1.031 1.324-2.262 3.012-3.392 4.56-1.082 1.483-2.071 2.84-2.704 3.63-2.746-2.76-7.95-5.549-7.95-5.549l-24.866 30.301-.017 13.309c1.193-.088 7.29-1.043 9.475-1.532.175.92.491 2.073.893 3.536.468 1.705 1.052 3.831 1.66 6.498-11.166 2.989-28.528 4.166-44.487.346.263-1.277 1.779-8.643 2.041-10.253 1.383.433 7.009 1.254 9.019 1.431-.023-.628.023-13.346.023-13.346L53.89 71.86c-1.343.615-5.404 3.369-7.211 5.106-.856-1.012-2.7-3.356-4.234-5.305-1.052-1.337-1.958-2.487-2.297-2.893C51.88 58.448 71.2 53.42 82.868 53.022c0 0 .969 9.016 1.146 10.807-2.18.123-7.013.614-8.703 1.05l21.222 24.71 18.716-22.628Z" clip-rule="evenodd"/></svg>