<svg xmlns="http://www.w3.org/2000/svg" width="180" height="180" fill="none"><path fill="#E00122" d="M89.976 155H49.008l4.884-16.693H94.86L89.976 155Z"/><path fill="#000" d="M117.446 25.004c-8.834-.22-22.46 9.349-24.299 19.208-.515 2.787.202 4.878 1.669 6.045.502.543 1.145.93 1.935 1.095 2.466.52 5.289-.311 7.698-2.18 1.647-1.278 3.095-3.033 4.094-5.166.662-1.418 1.094-2.724 1.306-3.91.303-1.666.201-3.089-.194-4.236a5.381 5.381 0 0 0-.975-1.733 4.536 4.536 0 0 0-1.43-1.114 5.803 5.803 0 0 0-2.314-.58c1.062-.522 2.19-.8 3.293-.76a5.24 5.24 0 0 1 2.401.652c.009.008.028.016.042.024.252-.578.532-1.131.844-1.665 1.487-2.518 3.63-4.506 5.947-5.598l-.018-.082h.001ZM93.349 30.61c-7.273 1.346-16.73 11.231-16.53 19.377.055 2.313 1.013 3.858 2.41 4.54.51.349 1.1.547 1.773.547 2.11.002 4.28-1.138 5.932-3.032a11.44 11.44 0 0 0 2.464-4.806c.302-1.24.417-2.351.39-3.333-.041-1.378-.365-2.494-.89-3.346a4.345 4.345 0 0 0-1.102-1.215 3.869 3.869 0 0 0-1.363-.646 4.918 4.918 0 0 0-1.99-.074c.777-.596 1.648-1.001 2.563-1.16a4.515 4.515 0 0 1 2.114.13c.107-.503.245-.99.41-1.47.769-2.23 2.163-4.156 3.85-5.415l-.031-.097Zm33.992 7.204c-6.052.16-13.898 3.769-16.572 9.078-.943 1.86-.885 3.483-.139 4.6a2.5 2.5 0 0 0 1.077 1.168c1.562.871 3.66.856 5.679.035 1.383-.566 2.735-1.51 3.858-2.808.753-.864 1.309-1.698 1.7-2.492.562-1.111.788-2.134.764-3.022a3.95 3.95 0 0 0-.303-1.423 3.193 3.193 0 0 0-.735-1.076 3.92 3.92 0 0 0-1.444-.877c.837-.154 1.647-.118 2.391.131a3.54 3.54 0 0 1 1.48.947c.013.012.026.018.026.024.295-.352.599-.685.927-.995 1.503-1.444 3.333-2.395 5.098-2.712l.009-.116c-1.12-.352-2.419-.5-3.816-.462ZM74.45 42.309c-5.507 1.81-11.764 10.364-10.711 16.555.298 1.758 1.212 2.834 2.375 3.204.433.213.916.3 1.44.229 1.642-.225 3.201-1.325 4.274-2.949a8.62 8.62 0 0 0 1.385-3.93c.095-.982.069-1.842-.06-2.59-.185-1.043-.564-1.861-1.062-2.453a3.45 3.45 0 0 0-.988-.814 3.139 3.139 0 0 0-1.136-.344 3.969 3.969 0 0 0-1.556.16c.541-.54 1.173-.944 1.869-1.16a3.609 3.609 0 0 1 1.624-.137c.012.004.024.004.033.005.026-.392.077-.782.154-1.165.353-1.787 1.228-3.405 2.405-4.55l-.046-.061Zm22.659 14.92c-21.302 0-39.261 19.076-43.43 38.971-4.806 22.947 9.205 36.938 25.029 36.64 16.94-.323 24.991-18.485 26.385-22.221l-.161-.025c-5.81 9.593-14.463 13.004-18.252 13.004-16.064 0-16.208-15.94-12.77-28.683 4.75-17.62 12.217-28.566 23.109-28.566 3.945 0 9.625 2.79 10.89 15.401l.223.026c1.045-2.93 6.251-19.785 6.251-19.785-5.169-2.857-10.431-4.762-17.274-4.762Z"/></svg>