<?xml version="1.0" encoding="UTF-8"?>
<svg id="Layer_1" xmlns="http://www.w3.org/2000/svg" viewBox="0 0 378 276.2">
  <defs>
    <style>
      .cls-1, .cls-2 {
        fill: #cfb87c;
      }

      .cls-3 {
        fill: #fff;
      }

      .cls-2, .cls-4 {
        fill-rule: evenodd;
      }

      .cls-4 {
        fill: #000105;
      }
    </style>
  </defs>
  <path class="cls-2" d="M174.4,6.67l-2.95,1c-31.72,10.06-46.79,29.44-50.25,34.43-1.19,1.19-9.81,15.92-13.85,19.94-9.97,1.25-36.09,8-48.67,22.91-7.16-.26-18.52-.08-18.65-.08-4.66.34-8.66,3.31-10.19,7.56-.3.82-.65,2.16-.65,3.8,0,2.69.95,6.22,4.65,9.76,2.33,2.23,6.12,4.68,10.15,6.78-1.64,6.02-2.58,14.12-2.58,21.53,0,3.27.2,6.35.58,9.1-1.8.88-3.54,1.81-4.7,2.58-2.82,1.91-8.68,6.99-12.77,13.97-2.6,4.44-3.82,7.87-4.18,16.43-.06,1.46-.25,5.89-1.25,7.65-1.22,2.12-5.3,7.94-7.49,11.06l-2.34,3.37c-1.61,2.43-2.62,5.75-3.88,10.17l-.48,1.63c-.39,1.21-1.86,4.58-2.41,5.5C.66,218.53,0,221.74,0,225.05c0,3.41.69,6.92,1.5,10.21,2.11,8.55,10.66,22.14,17.88,33.02l.76,1.12c1.92,3.49,4.58,5.66,7.93,6.48,4.98,1.21,8.64-1.25,10.4-2.42l.87-.58c5.85-3.59,9.01-8.5,10.88-11.44,0,0,.25-.37.47-.71.74-.55,1.96-1.45,1.96-1.45,3.63-2.62,5.93-4.33,7.47-6.2,5.93-7.2,8.82-18.08,9.25-23.24l.4-4.27c1.05-10.86,1.39-15.4,1.4-17.87,0-.41.03-1.22.07-2.06s.5-2.66,1.02-4.16c3.19.79,7.32,2.36,8.61,3.11,3.95,2.32,14.97,7.71,31.72,7.63,18.4-.09,28.41-2.57,31.04-3.33,3.8-1.1,13.95-4.99,13.95-4.99,1.94-.85,4.73-2.15,7.26-4.09,9.59-.32,16.85-.32,22.2-.14-3.23,3.52-6.34,8.04-8.27,13.72-2.01,5.88-3.33,13.95-3.92,23.95-.26,4.42-.43,7.72-.43,10.27,0,5.72.85,7.66,3.41,10.02l3.69,3.39,20.43-3.51,2.97-.05,7.17-.29c4.45-.57,10.92-2.21,15.75-5.14,5.24-3.18,9.96-8.97,11.05-10.34,1.23-1.26,6.26-5.03,8.08-6.28.2-.09,2.18-1.04,2.18-1.04l6.12-3.25c.11-.07,11.07-8.06,15.22-12.56,1.31-1.43,3.16-3.59,5-5.83,1.03,1.25,2.1,2.46,3.18,3.65l.8.89c4.64,5.27,10.53,5.7,14.18,4.46,0,0,.6-.21.77-.29s.87-.43.87-.43c3.03-1.67,10.01-5.55,12.71-7.37.58-.25,2.13-.58,2.84-.62h.02c4.34,0,8.5-2.56,10.69-4.77-.18.18.51-.45.51-.45,12.73-11.74,35.54-33.6,45.28-48.11,4.54-6.76,7.47-12.34,8.97-20.85,2.21-12.48,2-15.61.78-26.84l-.24-2.21c-2.02-18.67-19.87-39.61-22.85-42.02l-.55-.46c-3.48-2.99-12.72-10.92-31.05-16.73-8.76-2.78-19.6-3.3-24.54-3.15-.06-.03-.1-.05-.16-.08-.82-1.05-2.58-3.43-3.53-5.04-4.74-7.93-12.72-16.03-23.74-24.11l-.28-.21s-.47-.35-.47-.35c-3.54-2.71-14.3-10.95-36.21-15.29-29.63-5.87-48.78.77-59.07,4.34"/>
  <path class="cls-4" d="M146.44,179.29l3.69-24.98h-27.95s-16.59-19.92-16.59-19.92l9.65-65.23c-8.87,1.42-39.26,8.69-50.8,24.64-.74,1.03-3.21,1.36-4.57,1.28-1.19-.07-18.35-.08-19.11-.03-.76.06-2.77.83.11,3.57,2.54,2.42,8.53,5.94,13.71,7.79,1.83.65,1.51,3.68.58,5.28-3.21,5.58-4.89,26.75-2.31,34.02.36,1.02-.18,4.43-1.6,4.84-2.03.58-6.52,2.71-8.26,3.88-1.74,1.17-6.5,5.25-9.67,10.67-1.74,2.97-2.5,4.73-2.79,11.7-.17,4.11-.58,8.8-2.61,12.31-2.03,3.52-8.99,13.2-10.15,14.96-1.16,1.76-2.6,7.62-3.19,9.38-.58,1.76-2.47,6.21-3.55,7.85-1.73,2.63-.37,8.53.37,11.51,2.32,9.38,17.05,30.53,17.68,31.67,1.45,2.64,2.25,1.36,4.93-.3,5.72-3.52,7.83-9.38,9.56-10.85,1.74-1.46,7.45-5.24,8.7-6.74,4.35-5.28,6.67-14.08,6.96-17.6.29-3.52,1.62-17.66,1.74-22,.12-4.33,1.45-9.97,3.19-12.02,1.73-2.06,5.2-4.3,6.95-4.11,4.71.51,12.34,3.41,14.93,4.91,5,2.94,14.13,6.3,26.52,6.24,14.78-.07,24.38-1.81,28.26-2.94,4.57-1.32,10.22-3.3,11.74-4.11.56-.3,2.49-1.04,4.31-2.05l-10.43-13.64Z"/>
  <path class="cls-4" d="M366.72,110.87c-1.61-14.91-16.96-33.43-19.13-35.19-2.17-1.76-10.22-9.68-28.26-15.4-8.66-2.75-20.66-2.86-22.18-2.64-1.72.24-5.44-1.76-6.31-2.64-.86-.89-3.9-4.92-5.43-7.48-6.3-10.56-18.92-19.58-21.3-21.33-2.39-1.76-11.53-9.68-32.61-13.86-30.27-6-48.36,2.33-56.97,5.06-16.67,5.28-28.16,13.32-35.42,19.93h77.52s14.75,20.32,14.75,20.32l-3.92,26.45h-26.24s3.16-21.32,3.16-21.32h-60.76s-9.75,65.89-9.75,65.89h20.06s3.46-23.43,3.46-23.43h-8.06s3.15-21.23,3.15-21.23h35.3s-6.6,44.65-6.6,44.65h13.28s3.45-23.35,3.45-23.35h26.44s-4.32,29.27-4.32,29.27l-20.87,19.73h-21.76s-2.8,18.9-2.8,18.9h51.96s13.24-89.48,13.24-89.48h35.15s-3.18,21.47-3.18,21.47h-8.15s-11,74.33-11,74.33l-20.14,19.46h-29.46c-5.97,2.9-11.59,8.19-14.55,17.69-3.8,12.21-3.7,33.43-3.7,33.43,0,0,13.48-2.2,15.44-2.64,1.96-.44,7.17,0,10.66-.44,3.48-.44,8.47-1.76,11.74-3.74,3.25-1.98,6.95-6.16,8.48-8.14,1.52-1.98,9.13-7.48,10.44-8.36,1.3-.88,6.31-2.86,7.83-3.97,1.52-1.09,10.65-7.91,13.7-11.21,3.04-3.3,8.55-10.07,10.21-12.54,2.83-4.18,5.7-.69,6.09.67,1.09,3.73,6.08,8.8,7.82,10.77,1.74,1.99,3.26,1.55,3.26,1.55,0,0,10-5.5,12.18-7.04,2.17-1.54,6.74-2.2,8.04-2.2s3.04-1.1,3.7-1.75c.65-.67,33.04-29.92,44.57-47.08,3.81-5.67,6.18-10.05,7.4-16.94,2.17-12.32,1.74-14.08.43-26.18"/>
  <path class="cls-3" d="M311.05,138.47c-2.89,4.4-6.8,4.41-6.8,4.41-8.85.38-9.24-8.46-9.24-8.46.46-19.1,22.1-30.92,29.6-34.82,0,0,2.79-1.6,1.4.84-7.22,12.58-10.51,21.91-11.46,26.3,0,0-1.7,8.99-3.5,11.73"/>
  <path class="cls-1" d="M274.32,247.17c-5.06,0-9.71-4.04-9.71-9.92,0-5.72,4.48-9.92,9.71-9.92,5.46,0,9.76,4.32,9.76,9.94,0,5.3-4.1,9.9-9.76,9.9M274.32,228.22c-4.81,0-8.83,3.95-8.83,9.03,0,5.1,3.99,9.03,8.86,9.03,5.11,0,8.86-4.18,8.86-9s-3.77-9.05-8.88-9.05M274.21,230.93c1.26,0,2.13.02,2.87.3,1.34.47,1.97,1.73,1.97,2.9,0,.87-.33,2.4-2.51,2.96,1.17.5,1.53,1.22,1.75,2.62.25,1.73.38,2.62.93,3.73h-2.49c-.35-.73-.41-1.2-.66-2.73-.41-2.65-.57-2.9-3.66-2.9v5.63s-2.19,0-2.19,0v-12.51s3.99,0,3.99,0ZM272.43,236.02h1.8c.9,0,2.62,0,2.62-1.73,0-.5-.22-1.17-.87-1.47-.44-.17-.82-.17-2.16-.17h-1.39s0,3.37,0,3.37Z"/>
</svg>