<svg xmlns="http://www.w3.org/2000/svg" width="180" height="180" fill="none"><path fill="#C92A39" d="M82.388 33.383v22.26h6.32v16.35H65.545v-16.35h6.318v-22.26H30v22.26h6.777v40.638l13.017 11.215h13.173v17.751h-6.77V147.5h41.865v-22.253h-6.319v-4.1h22.704v4.1h-6.311V147.5H150v-22.253h-6.777V94.259H150V71.992h-32.517v-16.35h6.77v-22.26l-41.865.001Z"/><path fill="#fff" d="M85.558 36.547V52.48h6.311v22.682H62.382V52.481h6.31V36.547h-35.53V52.48h6.783v42.35l11.024 9.496h15.16v24.091h-6.77v15.913h35.532v-15.913h-6.318v-10.433h29.036v10.433h-6.311v15.913h35.531v-15.913h-6.776V91.091h6.776V75.164h-32.516V52.48h6.776V36.547H85.558Zm31.854 55.79v8.778h-9.89l9.89-8.778Z"/><path fill="#C92A39" d="M36.178 39.553v9.91h6.777v43.988l9.136 7.858h14.053v-10.23h-6.777V49.465h6.319v-9.911H36.177Zm52.388 0v9.91h6.32V91.08h-6.32v10.229h13.887l8.855-7.858V49.464h6.769v-9.911H88.566ZM62.374 78.166v9.914h6.777v43.34h-6.777v9.9H91.88v-9.9h-6.314v-16.457h35.056v16.457h-6.309v9.9h29.506v-9.9h-6.769V88.08h6.769v-9.914h-29.506v9.914h6.309v16.234H85.566V88.08h6.314v-9.914H62.374Z"/></svg>