<svg xmlns="http://www.w3.org/2000/svg" width="180" height="180" fill="none"><mask id="a" width="169" height="117" x="6" y="31" maskUnits="userSpaceOnUse" style="mask-type:luminance"><path fill="#fff" d="M6 31h169v116.361H6V31Z"/></mask><g mask="url(#a)"><path fill="#FDC82F" d="M108.303 119.301v-60.26h11.739L124.543 31h-68.66l4.5 28.04h11.792v60.261H60.556l-4.497 28.056h68.351l-4.501-28.059-11.603.003h-.003Z"/><path fill="#A71930" d="m116.4 54.769 3.13-19.496H60.887l3.13 19.499h12.418v68.802H64.193l-3.13 19.512h58.334l-3.13-19.512h-12.23V54.769H116.4Z"/><path fill="#822433" d="m119.533 35.272-10.107 9.745H90.239v21.03c-2.723.004-5.442.056-8.162.161a12621.42 12621.42 0 0 0-7.951 31.211c-1.75.13-3.504.28-5.248.457l1.503 10.143c4.46-.408 8.93-.68 13.406-.815.658-2.917 1.312-5.834 1.973-8.748 1.49-.03 2.985-.046 4.479-.05v34.734h-19l-10.17 9.942h58.328l-3.136-19.508-6.838 9.566H94.421l9.616-9.57v-16.051c2.08.127 4.161.284 6.241.472.497-3.386 1.004-6.769 1.501-10.15a194.232 194.232 0 0 0-3.288-.295c.392-2.865.781-5.73 1.164-8.594a230.99 230.99 0 0 0-5.226-.395c-.136-.494-.259-.988-.392-1.482v-6.143c3.533.215 7.06.515 10.578.899-.08-1.399-.151-2.8-.222-4.199.88.096 1.769.201 2.658.306v20.475c-.942-.111-1.892-.222-2.834-.327l-1.682 10.121a220.096 220.096 0 0 1 20.83 3.096c-.559-3.543-1.112-7.078-1.661-10.612a214.273 214.273 0 0 0-3.328-.605V79.608l2.677.482c-.071 1.38-.152 2.756-.223 4.136 3.584.667 7.15 1.42 10.706 2.263.246-4.757.506-9.52.765-14.28a220.983 220.983 0 0 0-38.264-5.742V54.769h12.356l3.14-19.496Zm-48.29 9.742-7.224 9.754h12.419l10.223-9.754H71.243Zm6.235 21.413a220.854 220.854 0 0 0-39.264 5.896l.756 14.28c3.549-.85 7.118-1.611 10.705-2.284l-.22-4.14c.88-.163 1.76-.324 2.643-.481v20.474c-1.105.195-2.2.396-3.294.609l-1.657 10.615a221.91 221.91 0 0 1 20.774-3.139l-1.67-10.113c-.947.105-1.895.216-2.837.334V78c.883-.108 1.772-.213 2.655-.312l-.22 4.201c3.61-.403 7.23-.72 10.854-.95l.775-14.512Zm66.098 6.09c.543 3.563 1.096 7.131 1.645 10.7.766.197 1.531.4 2.294.605v5.04a230.984 230.984 0 0 0-4.214-1.08c.685 3.596 1.371 7.195 2.047 10.798.719.185 1.451.376 2.167.568v5.142c-1.093-.284-2.177-.568-3.272-.839l-1.643 9.884a220.244 220.244 0 0 1 32.372 10.566c-.232-4.918-.472-9.838-.71-14.761a223.918 223.918 0 0 0-10.332-3.936c.053 1.414.124 2.827.186 4.244a214.064 214.064 0 0 0-5.547-1.883v-5.145c2.312.747 4.624 1.543 6.914 2.37.812-3.139 1.611-6.272 2.411-9.402a224.46 224.46 0 0 0-9.322-3.254v-5.047c1.856.602 3.704 1.23 5.544 1.883-.062 1.368-.133 2.732-.186 4.106a218.037 218.037 0 0 1 10.329 3.942c.241-4.723.491-9.446.741-14.166a220.373 220.373 0 0 0-31.424-10.334ZM36.362 72.8a218.912 218.912 0 0 0-21.88 6.76c-4.704 1.719-8.476 6.399-8.476 12.085v6.67c0 4.84 3.769 7.859 8.473 6.248a222.106 222.106 0 0 1 11.418-3.569c.18-.049.324.056.324.241v4.822a.462.462 0 0 1-.317.423 229.955 229.955 0 0 0-8.906 2.935l.216-4.25a214.09 214.09 0 0 0-10.291 3.914l-.735 14.749a219.957 219.957 0 0 1 22.42-7.872c4.784-1.404 8.714-5.303 8.714-11.137v-7.5c0-4.838-3.927-7.91-8.705-6.625a218.535 218.535 0 0 0-11.452 3.417c-.18.062-.328-.046-.328-.228v-4.569c0-.185.143-.383.322-.445 2.7-.95 5.414-1.849 8.14-2.691l-.217 4.247a223.884 223.884 0 0 1 10.52-2.982l.76-14.643Zm53.883 8.25v7.076h-1.932c.642-2.362 1.284-4.717 1.932-7.075Z"/><path fill="#FADA63" d="M105.698 78.898c2.257.154 4.507.349 6.76.574-.071-1.401-.151-2.8-.225-4.204 2.337.234 4.667.5 6.992.808v24.751c-1.052-.138-2.105-.27-3.158-.396l-.976 5.906c5.27.589 10.523 1.37 15.752 2.346l-.972-6.193a214.566 214.566 0 0 0-3.655-.632V77.104a221.1 221.1 0 0 1 6.976 1.26l-.222 4.133c2.232.438 4.454.91 6.668 1.414.185-3.356.361-6.705.543-10.063a221.516 221.516 0 0 0-35.029-5.177l.546 10.227Zm60.301 29.183.195 4.25a217.582 217.582 0 0 0-9.724-3.303v-9.415c2.47.772 4.933 1.593 7.384 2.455l1.407-5.507a222.014 222.014 0 0 0-8.794-2.964v-9.313a211.921 211.921 0 0 1 9.727 3.294l-.195 4.105c2.161.784 4.303 1.606 6.442 2.458.173-3.328.349-6.653.516-9.983a220.837 220.837 0 0 0-26.88-8.869c.315 2.09.633 4.177.954 6.267.867.228 1.741.466 2.608.707v9.319a210.84 210.84 0 0 0-3.599-.97c.324 2.087.639 4.177.96 6.267.883.231 1.759.472 2.639.713v9.424c-1.19-.335-2.384-.656-3.581-.963-.318 1.923-.633 3.843-.957 5.766a221.158 221.158 0 0 1 27.837 9.106c-.166-3.457-.336-6.924-.494-10.384a220.744 220.744 0 0 0-6.445-2.46Zm-61.671-11.382 1.941.13.877-5.945a245.546 245.546 0 0 0-4.39-.287 8390.547 8390.547 0 0 0-5.976-22.32c-4.329-.123-8.66-.119-12.989.011a12869.14 12869.14 0 0 0-7.992 31.15c-1.47.101-2.938.216-4.408.34l.88 5.938c3.264-.271 6.534-.469 9.807-.593.957-4.006 1.923-7.998 2.88-11.989l1.528 3.17c3.33-.061 6.66-.047 9.989.044l2.111 8.766c3.272.114 6.535.309 9.801.574l.886-5.939a264.218 264.218 0 0 0-4.399-.333l-.546-2.716ZM89.631 74.21h1.405c1.327 5.352 2.648 10.717 3.972 16.095a216.204 216.204 0 0 0-9.35.006l3.973-16.101Zm-48.759 9.816c2.216-.512 4.436-.99 6.661-1.43-.074-1.379-.142-2.756-.222-4.135 2.306-.459 4.62-.88 6.94-1.266v24.753a223 223 0 0 0-3.618.63l-.967 6.195a221.834 221.834 0 0 1 15.706-2.377l-.978-5.896c-1.05.124-2.1.254-3.15.399V76.144c2.325-.308 4.653-.586 6.983-.818l-.225 4.199c2.253-.232 4.507-.427 6.76-.587l.55-10.227a220.62 220.62 0 0 0-34.98 5.251l.54 10.063Zm-12.26 8.807a221.004 221.004 0 0 0-11.453 3.42c-1.33.432-2.41-.303-2.41-1.67v-4.516c0-1.361 1.073-2.858 2.404-3.328a221.562 221.562 0 0 1 10.236-3.33l-.216 4.244a227.536 227.536 0 0 1 6.531-1.849l.534-10.316a220.913 220.913 0 0 0-19.761 6.21c-3.56 1.303-6.421 5.449-6.421 9.107v7.31c0 3.654 2.858 5.531 6.408 4.315a218.29 218.29 0 0 1 11.421-3.572c1.346-.376 2.445.439 2.445 1.806v4.766c0 1.358-1.096 2.787-2.438 3.195a216.07 216.07 0 0 0-10.962 3.673l.284-4.281a222.314 222.314 0 0 0-6.47 2.463c-.172 3.463-.348 6.924-.515 10.387a221.283 221.283 0 0 1 20.373-7.05c3.618-1.059 6.587-4.794 6.587-8.458v-7.55c0-3.655-2.963-5.949-6.575-4.976"/><path fill="#FDC82F" d="M119.225 76.076a368.088 368.088 0 0 1 3.167-2.571 220.716 220.716 0 0 0-13.721-1.565l.068.093c-.022-.025-.043-.04-.068-.062.068 1.228.133 2.46.204 3.689a635.699 635.699 0 0 0-3.174 3.238c2.257.154 4.507.348 6.761.574-.071-1.405-.152-2.8-.223-4.204 2.334.234 4.658.5 6.986.808Zm17.493.034-.247 3.797a365.425 365.425 0 0 0-3.498 2.59c2.232.438 4.455.91 6.668 1.414l.54-10.063c-1.154.743-2.309 1.5-3.463 2.262Z"/><path fill="#FDC82F" d="M126.784 104.96c-1.1-.185-2.201-.36-3.303-.525l2.735-2.577v-24.75c2.33.38 4.658.802 6.976 1.256 1.16-.772 2.321-1.534 3.479-2.29a224.615 224.615 0 0 0-13.947-2.52v30.77a220.685 220.685 0 0 0-4.371-.605 550.447 550.447 0 0 0-3.265 2.618 221.3 221.3 0 0 1 15.755 2.346l-.973-6.189a369.903 369.903 0 0 0-3.086 2.466ZM54.246 77.191c1.056-1.173 2.109-2.346 3.161-3.507a221.297 221.297 0 0 0-13.615 2.5.95.95 0 0 0 .067.075l-.068-.043.195 3.627a1048.651 1048.651 0 0 0-3.118 4.182c2.223-.512 4.44-.99 6.668-1.429l-.226-4.133a213.58 213.58 0 0 1 6.936-1.272Zm17.55-5.177c-.088 1.29-.172 2.58-.254 3.871a793.919 793.919 0 0 0-3.54 3.637c2.25-.23 4.503-.426 6.76-.587l.549-10.227c-1.173 1.096-2.346 2.192-3.519 3.303"/><path fill="#FDC82F" d="M61.294 103.898c-.114.016-1.306.173-2.79.389.91-1.136 1.827-2.266 2.738-3.389v-24.75a214.05 214.05 0 0 1 6.985-.821 435.139 435.139 0 0 1 3.52-3.334c-4.686.397-9.356.946-14.006 1.645v30.763c-1.556.232-3.75.59-4.834.778a647.354 647.354 0 0 0-3.24 3.593 221.912 221.912 0 0 1 15.708-2.373l-.982-5.899c-1.034 1.129-2.068 2.256-3.099 3.398Zm111.141 6.646c-1.019.602-2.05 1.21-3.075 1.831l.247 4.241c-4.13-1.803-19.28-6.59-21.308-6.958-1.068.71-2.136 1.433-3.204 2.161a222.914 222.914 0 0 1 27.834 9.106c-.164-3.457-.334-6.921-.494-10.381Zm-6.436-18.863c1.13-.689 2.259-1.37 3.377-2.044.083-1.25.16-2.506.247-3.753a409.483 409.483 0 0 1 3.334-1.726c-.167 3.33-.34 6.655-.516 9.986a222.665 222.665 0 0 0-6.442-2.463Zm-16.369-9.418 3.093-2.124c-.886-.26-1.773-.512-2.661-.76a240.422 240.422 0 0 0-3.038 2.18c.865.231 1.738.463 2.609.704m-.003 15.332a423.517 423.517 0 0 1 3.093-2.124c-.886-.26-1.773-.514-2.661-.762a276.71 276.71 0 0 0-3.072 2.17c.883.234 1.76.469 2.64.716Z"/><path fill="#FDC82F" d="M166.187 87.575c1.142-.58 2.291-1.158 3.426-1.723a220.404 220.404 0 0 0-16.56-5.611l-.003 30.763a335.62 335.62 0 0 1 3.411-1.497v-9.894c2.475.772 4.938 1.593 7.389 2.458l1.405-5.513c-1.056.62-2.115 1.253-3.173 1.892a209.082 209.082 0 0 0-5.618-1.846V84.28a232.466 232.466 0 0 1 9.723 3.294Zm-60.131 14.934a208.46 208.46 0 0 0-4.328-.266c-1.043.951-2.096 1.905-3.142 2.871a212.8 212.8 0 0 1 9.804.574l.879-5.936a418.113 418.113 0 0 0-3.213 2.757Zm-4.146-.426c.991-.895 1.976-1.784 2.964-2.667-.179-.901-.358-1.809-.544-2.716l1.936.13c.299-1.98.589-3.964.88-5.943-1.05.92-2.099 1.852-3.149 2.787-5.21-.318-10.43-.452-15.65-.4l-1.861 3.03c4.678-.085 9.358-.022 14.032.192l1.392 5.587ZM91.039 74.209c.963-1 1.929-2 2.895-2.991a225.601 225.601 0 0 0-6.843 0 18905.28 18905.28 0 0 0-7.792 31.022c-1.274.068-2.543.142-3.818.229-1.068 1.077-2.142 2.157-3.21 3.247 3.264-.27 6.534-.467 9.807-.59 2.518-10.35 5.034-20.653 7.553-30.917h1.408Z"/><path fill="#FDC82F" d="M99.663 93.292c1.034-.902 2.069-1.806 3.096-2.695a8388.542 8388.542 0 0 0-5.979-22.32c-.95.975-1.895 1.965-2.846 2.956 1.911 7.325 3.819 14.684 5.73 22.059Zm-84.446 14.724c-.092 1.429-.191 2.852-.287 4.281a698.128 698.128 0 0 0-3.364 4.285c.074-1.488.154-2.97.225-4.458a827.33 827.33 0 0 1 3.426-4.108Z"/><path fill="#FDC82F" d="M35.183 105.361v-7.553c0-1.973-.859-3.534-2.217-4.414-.883.947-1.76 1.907-2.636 2.877.843.704 1.365 1.753 1.365 3.108v5.112c0 3.21-2.587 6.177-5.754 7.146a222.138 222.138 0 0 0-14.376 4.945 410.056 410.056 0 0 0-3.336 4.281 221.568 221.568 0 0 1 20.373-7.047c3.617-1.062 6.58-4.791 6.58-8.455ZM16.828 83.828c-3.127 1.111-5.334 4.247-5.334 7.454v4.445c0 1.575.451 2.6 1.439 3.217l2.426-2.939a1.784 1.784 0 0 1-.614-1.42V90.07c0-1.364 1.08-2.861 2.408-3.33a221.685 221.685 0 0 1 10.232-3.331 741.398 741.398 0 0 1 3.424-4.01 219.926 219.926 0 0 0-13.978 4.433"/><path fill="#FDC82F" d="M26.219 96.098a215.472 215.472 0 0 0-9.585 2.93c-1.45.481-2.772.481-3.772-.01-.873 1.081-1.744 2.17-2.617 3.26 1.13.608 2.599.704 4.22.154a219.116 219.116 0 0 1 11.42-3.574c.738-.204 1.392-.043 1.843.364.87-.988 1.735-1.975 2.602-2.95-.956-.71-2.092-.788-4.111-.174Zm.95-8.445a659.976 659.976 0 0 1 3.356-4.032c.096-1.395.185-2.787.284-4.18a753.246 753.246 0 0 1 3.426-3.954l-.53 10.317a211.96 211.96 0 0 0-6.535 1.849Z"/></g></svg>