<svg xmlns="http://www.w3.org/2000/svg" width="180" height="180" fill="none"><path fill="#fff" d="M103.688 110.397a93.638 93.638 0 0 1 4.664-3.151c-1.187 2.243-1.482 4.227-1.642 5.34l-.01.06c-.645.315-1.497.828-2.561 1.791-1.072.97-1.798 2.081-2.221 2.789-1.026.23-1.92.506-2.495 1.198-.348.418-.457.858-.655 1.657-.175.708-.415 1.678-.794 2.527-.115.257-.22.485-.317.698a22.602 22.602 0 0 0-1.67-1.742c-.903-.834-2.044-1.673-3-2.339 2.352-2.11 7.091-6.213 10.701-8.828Zm-.411-88.388c-4.112.199-6.85 2.84-8.104 4.372-4.809-1.548-9.9-1.518-14.431.137-7.143 2.609-9.45 6.89-10.343 8.643-.926.16-2.432.563-3.81 1.822-.561.512-1.386 1.649-2.794 3.614-1.332 1.859-2.99 4.172-3.89 5.026-2.683 2.545-3.875 2.944-5.387 2.843a1.915 1.915 0 0 0-2.049 1.901c0 1.723 2.134 4.283 3.855 4.925.78.29 1.505.462 2.16.565-.144.447-.27.912-.353 1.362-.113.612-.478 1.914-.801 3.062-.535 1.906-.836 2.978-.836 3.703 0 .586.198.945.628 1.334.417.378.867.509 1.306.506-.118.478-.257.99-.43 1.53-.274.851-.836 1.97-1.287 2.87-.47.938-.903 1.8-.903 2.557 0 .53.213 1.009.773 1.426.243.18.71.5 2.052.449l-.13.214c-.596.946-1.043 1.653-1.043 2.383 0 .252.053.506.17.774.194.44.535.75.96.969-.501.387-.94.863-1.219 1.443a3.203 3.203 0 0 0-.05 2.689c.208.486.465.86.75 1.169a34.42 34.42 0 0 0-.793.349c-1.294-4.531-2.956-6.82-4.956-6.79a3.694 3.694 0 0 0-1.361.28c-.139-.404-.271-.795-.383-1.127l-.8-2.308c-2.718-7.313-5.182-7.139-5.992-7.081-2.533.18-3.199 2.68-3.335 5.091-.478-.486-1.051-.774-1.799-.72-.408.029-.739.155-1.038.317-.435-.927-.917-1.847-1.406-2.547l-.296-.427c-1.454-2.101-3.445-4.98-6.118-3.86-2.19.92-2.769 3.008-2.769 5.326 0 1.413.215 2.91.411 4.28.114.792.264 1.644.43 2.499-.175-.058-.35-.129-.527-.152a2.653 2.653 0 0 0-2.281.785c-.898.91-1.196 1.914-1.196 2.884 0 1.22.472 2.384.816 3.23l.208.526-.093.045c-1.693-1.576-4.148-3.325-6.328-2.143-.759.411-1.285 1.092-1.524 1.97a4.323 4.323 0 0 0-.138 1.13c0 2.683 1.95 6.075 2.392 6.81.22.364.644 1.118 1.075 1.888-.524.187-1.063.562-1.371 1.335-.128.32-.184.64-.184.958 0 .893.445 1.762 1.01 2.526a2.267 2.267 0 0 0-1.625 1.208c-1.127-.356-4.115-1.077-4.963.982a1.954 1.954 0 0 0-.137.722c0 1.798 2.386 3.73 3.44 4.496a2.018 2.018 0 0 0-.226.877c0 .138.014.276.042.415.273 1.346 1.661 2.344 4.672 4.071l.317.183c-.018.062-.048.11-.062.177a2.31 2.31 0 0 0-.05.472c0 1.935 2.527 3.23 3.401 3.678l.378.18c-.614.931-1 1.926-1.089 2.994-.01.129-.015.256-.015.381 0 2.477 2.021 4.335 4.042 4.557.005 0 .121.012.302.023.052.267.126.549.258.983.004.013.198.554.548 1.169-.606.08-1.34.217-2.277.447-1.981.486-4.823 1.517-6.35 2.071l-.755.272c-2.757.971-2.944 2.125-3.005 2.504a1.918 1.918 0 0 0 .713 1.823c.14.11.285.192.429.256-2.5 1.506-3.53 4.047-3.53 5.801 0 .204.014.396.04.575.126.847.288 1.491.428 1.944a6.752 6.752 0 0 0-.265 1.872c0 1.379.4 3.016 1.633 4.598 2.495 3.202 7.614 4.538 11.58 4.442 3.01-.073 4.702-.547 5.552-.797 4.66 1.54 9.857 2.009 15.454 1.384 5.966-.668 11.478-2.805 13.886-3.843.8.684 1.932 1.299 3.372 1.361 3.497.15 5.593-3.296 7.183-6.687a108.713 108.713 0 0 0 1.45-3.219c.2.187.405.366.617.522l.395.296c1.042.783 2.224 1.671 3.865 1.374a2.767 2.767 0 0 0 1.522-.815c.393.284.84.591 1.415.941l.24.147c.839.511 1.66 1.011 2.45 1.384-.147.194-.295.385-.44.601-1.871 2.808-2.463 5.303-2.463 7.212 0 1.408.322 2.497.692 3.157.724 1.294 1.759 1.392 2.17 1.374.181-.008 1.776-.131 1.9-2.02.073-1.098 1.513-2.675 2.708-3.805.822-.777 1.552-1.265 2.127-1.58.384.697.875 1.493 1.428 2.143.765.901 2.023 1.53 2.941 1.99l.452.235.136.173c.719.939 2.215 2.895 5.437 2.928 3.23.032 7.274-3.187 9.115-5.484 2.231-2.785 3.409-5.418 3.9-6.691 1.3-.706 4.013-2.499 7.862-6.701 6.327-6.907 9.106-14.999 9.6-16.552 1.008-3.179 1.51-5.745 1.51-7.808 0-1.429-.241-2.617-.72-3.6-.998-2.049-2.412-2.935-3.576-3.24-1.069-1.646-3.788-5.102-8.256-6.016a18.892 18.892 0 0 0-3.347-.386c1.734-.962 3.032-1.692 3.807-2.249.745-.536 6.631-4.92 6.631-9.812 0-.577-.082-1.16-.264-1.745-.945-3.046-3.548-4.345-5.682-4.902a4.09 4.09 0 0 0 .113-.913c0-.263-.025-.534-.078-.813-.155-.807-.496-1.44-.973-1.946 3.927-.199 8.51-.666 12.928-1.694 6.173-1.435 9.77-2.714 12.66-3.74 1.317-.468 2.455-.873 3.653-1.231a161.589 161.589 0 0 1 6.199-1.715c1.175-.303 1.298-.335 1.598-.536a2.129 2.129 0 0 0 .941-1.89 2.034 2.034 0 0 0-1.132-1.706l-.286-.128c-3.795-1.636-7.229-3.599-9.441-4.958-2.35-1.443-4.613-3.163-6.281-4.514 2.011-.471 4.428-.978 5.906-1.079 5.634-.382 9.258.718 10.555 1.209 1.799.68 2.932 1.754 2.943 1.764l2.062 1.976.964-2.689c.147-.415 3.5-10.289-6.04-20.568-9.301-10.022-23.294-11.498-32.884-8.67-1.361-1.207-4.135-3.479-6.4-4.11-3.463-.963-5.621-.45-6.883.215-1.872-1.167-5.766-3.248-9.51-3.067M117.22 153.34a3.043 3.043 0 0 1-3.037 3.05 3.044 3.044 0 0 1-3.038-3.05c0-1.684 1.36-3.05 3.038-3.05a3.043 3.043 0 0 1 3.037 3.05Zm0-.026a3.043 3.043 0 0 1-3.037 3.049 3.043 3.043 0 0 1-3.038-3.049c0-1.685 1.36-3.05 3.038-3.05a3.043 3.043 0 0 1 3.037 3.05Zm0 .026a3.043 3.043 0 0 1-3.037 3.05 3.044 3.044 0 0 1-3.038-3.05c0-1.684 1.36-3.05 3.038-3.05a3.043 3.043 0 0 1 3.037 3.05Z"/><path fill="#0051BA" d="M103.787 23.853c-.14 0-.281.003-.42.01-4.776.23-7.402 4.56-7.402 4.56s-.234.093-.611-.043c-1.802-.652-7.475-2.494-13.98-.118-8.272 3.021-9.258 8.255-9.843 8.596-.191.11-2.07.012-3.699 1.498-1.017.928-4.832 6.884-6.657 8.616-2.712 2.572-4.435 3.503-6.78 3.346-.462-.031 1.063 2.67 2.573 3.233 2.45.913 4.258.468 4.258.468s-.986 1.96-1.277 3.538c-.291 1.576-1.783 6.207-1.59 6.382.194.175 1.211-.466 1.522-.564.31-.097.916-.326.916-.326s-.166 2.155-1.04 4.875c-.616 1.918-2.3 4.624-2.075 4.79.257.192 1.458.066 2.136-.051a28.065 28.065 0 0 0 1.759-.397s-.435 1.665-.823 2.443c-.388.779-1.533 2.339-1.432 2.568.06.135 1.21.485 3.186.204 1.718-.244 3.12-1.012 3.12-1.012s-.377.698-.558 1.163c-.17.438-.275 1.387-.488 1.542-.214.156-2.542.332-3.412.57-1.135.31-2.725 1.31-2.151 2.65.615 1.434 1.764 1.235 4.458 1.586 2.694.35 3.333.68 3.333.68s-2.765-.103-5.235.406c-2.25.464-5.522 2.26-5.522 2.26s-1.72-7.644-3.704-7.615c-1.861.027-1.605 2.27-1.8 2.245-.377-.046-1.789-4.683-2.503-6.606-.706-1.899-2.483-5.996-4.13-5.879-1.648.117-1.722 3.087-1.606 6.044.117 2.958.059 6.032-.019 6.032-.077 0-.872-1.432-1.609-3.853-.621-2.042-1.24-3.9-1.898-3.853-1.186.086-1.145 3.017-1.242 2.978-.097-.039-1.53-4.105-2.849-5.993-1.318-1.887-2.787-4.225-4.186-3.638-2.124.891-1.741 4.138-1.24 7.627.533 3.722 1.92 8.952 1.92 8.952s-3.298-5.787-4.816-4.248c-1.345 1.362-.3 3.227.26 4.714.582 1.548 1.483 2.983 1.395 3.055-.352.284-1.499-1.115-2.267-.799-.828.34-.403 1.447-.558 1.428-.155-.02-3.873-4.605-5.858-3.53-1.994 1.081.872 6.382 1.434 7.317.562.934 2.384 4.242 2.423 4.339.038.097-.736.136-1.299.175-.561.039-1.1-.106-1.285.358-.149.373-.013 1.18 1.518 2.755 1.532 1.576 2.533 2.387 2.424 2.529-.244.317-4.433-1.442-4.886-.35-.289.698.679 1.557.679 1.557s-1.564-.306-2.663-.674c-1.294-.433-2.692-.487-2.842-.123-.178.433 1.726 2.406 3.082 3.288 2.935 1.91 3.47 1.654 3.527 1.771.059.117-3.54-.371-3.39.37.178.883 3.362 2.569 4.37 3.172 1.008.604 3.247 1.577 3.189 1.674-.059.097-.601 0-1.221 0-.62 0-1.336-.032-1.413.338-.078.37.431 1.114 2.382 2.114 1.768.907 2.577 1.148 2.539 1.245-.039.097-2.055 1.406-2.248 3.736-.138 1.668 1.318 2.821 2.384 2.938 1.065.117 1.822-.078 1.822-.078.045 1.512.006 1.405.305 2.386.29.954 1.052 1.661 1.071 1.661.02 0-.155.488-.33.857-.174.37-.31 1.012-.31 1.012s-.57-.283-3.489.433c-2.277.559-5.827 1.903-6.93 2.292-1.106.389-1.946.973-1.772 1.109.175.136.737.039 1.57.214.833.175 2.985.778 4.031.876 1.047.097 1.9.194 1.9.194s-.027.234-.008.506l.046.622s-.446.254-.852.585c-.408.33-.737.778-.737.778s-2.655-1.977-5.233-.739c-2.644 1.27-3.22 3.854-3.082 4.788.222 1.494.56 2.206.56 2.206s-1.267 2.604.862 5.337c2.022 2.594 6.526 3.815 10.08 3.729 3.822-.093 5.32-.881 5.65-.861.33.019 5.876 2.501 15.196 1.458 7.585-.848 14.556-4.242 14.556-4.242s.965 1.665 2.985 1.751c1.618.07 3.26-.992 5.43-5.623 2.172-4.631 2.56-6.078 2.56-6.078s1.11 1.819 2.274 2.676c1.163.856 1.87 1.515 2.84 1.34.969-.176 1.118-1.752 1.293-1.771.174-.02.718.79 2.93 2.135 1.67 1.018 3.576 2.229 4.457 1.795.327-.161-.618-2.12-.618-2.12l.481.22c-.012-.064.189.416.834.923.602.472 1.376.607 1.376.685 0 .078-2.002.7-3.701 3.25-3.407 5.112-1.928 8.886-1.22 8.856.461-.02-.8-1.331 3.422-5.322 2.398-2.267 4.29-2.579 4.29-2.579s.887 2.053 1.938 3.288c.73.859 2.52 1.557 3.101 1.927.582.37 1.427 2.717 4.478 2.748 2.386.024 6.003-2.729 7.655-4.791 2.855-3.563 3.857-6.867 3.857-6.867s2.912-1.081 7.985-6.618c5.282-5.766 8.179-12.65 9.198-15.859 1.57-4.945 1.785-8.194.892-10.029-1.254-2.574-3.036-2.328-3.036-2.328s-2.512-4.903-7.504-5.924c-4.544-.929-8.349-.332-10.83 3.784-2.084 3.457-1.592 6.3-2.134 6.514-.543.214-1.433.547-2.809 1.792-1.376 1.246-2.151 2.902-2.267 3.019-.116.117-1.87.3-2.267.778-.193.233-.447 2.113-1.182 3.756-1.441 3.223-1.725 3.25-1.725 3.25s-1.548-2.163-3.2-3.688c-1.68-1.552-4.456-3.259-4.572-3.395-.117-.136-.058-.078.039-.253.096-.175 7.315-6.706 12.404-10.391 7.818-5.661 16.053-9.52 18.296-11.13 2.25-1.617 6.792-5.909 5.679-9.496-1.271-4.095-6.973-4.018-6.973-4.018s1.603-1.098 1.274-2.81c-.27-1.41-1.472-2.247-6.628-2.443-3.861-.146-6.086-.068-6.105-.088-.019-.02.155-.486.252-.914.097-.428.155-.934.174-.915.02.02 13.604 1.365 25.661-1.44 8.83-2.053 12.221-3.75 16.202-4.942 4.308-1.288 7.185-1.939 7.301-2.016.116-.078.198-.294.005-.391-.194-.098-4.323-1.76-9.863-5.162-4.849-2.978-9.265-7.024-9.265-7.024s6.64-1.795 9.73-2.005c5.569-.378 9.452.612 11.332 1.323 2.222.841 3.575 2.167 3.575 2.167s3.232-9.109-5.651-18.68c-8.687-9.36-22.368-11.145-32.016-7.865 0 0-3.826-3.672-6.411-4.391-4.9-1.364-6.348.678-6.348.678s-4.686-3.456-9.042-3.474h.001ZM50.91 123.945s.438.344.344 1.505c-.094 1.16-.303 2.163-.303 2.602 0 .439.178 1.38.147 1.506-.031.125-.167.195-.687.256-.5.058-.813.152-.813.152s.47-1.569.563-2.039c.093-.47-.25-1.348-.094-2.415.124-.846.843-1.567.843-1.567Zm-11.308 3.041s.25.189.282.408c.03.22.187 1.067.28 1.474.094.408.344 1.035.344 1.035s-.718.376-1.312.596c-.593.219-1.124.47-1.25.439-.124-.032-.311-.815-.218-1.098.094-.282.125-.877.125-1.034 0-.157.375-.534.874-.941.5-.408.875-.879.875-.879Zm74.622 23.923c-.43 0-.83.107-1.2.322a2.371 2.371 0 0 0-.878.881 2.373 2.373 0 0 0-.322 1.206c0 .432.107.834.321 1.206.214.371.506.665.876.879.37.214.772.321 1.203.321.43 0 .83-.108 1.2-.323.37-.215.662-.508.876-.879.214-.37.321-.772.321-1.204 0-.43-.108-.832-.323-1.203a2.379 2.379 0 0 0-.877-.882 2.337 2.337 0 0 0-1.197-.324Zm0 .394c.545 0 1.011.197 1.399.591.388.394.581.868.581 1.424 0 .555-.193 1.029-.58 1.422a1.892 1.892 0 0 1-1.4.589 1.901 1.901 0 0 1-1.404-.587 1.956 1.956 0 0 1-.58-1.424c0-.555.194-1.03.582-1.424a1.896 1.896 0 0 1 1.402-.591Zm-.955.719v2.6h.416v-1.103h.243c.155 0 .279.044.373.13.092.086.22.275.384.567l.225.406h.509l-.312-.505a3.296 3.296 0 0 0-.324-.456.773.773 0 0 0-.27-.199.81.81 0 0 0 .527-.232.685.685 0 0 0 .205-.504.67.67 0 0 0-.117-.376.638.638 0 0 0-.31-.252c-.129-.051-.35-.076-.664-.076h-.885Zm.416.349h.472c.242 0 .41.029.505.087.096.058.144.16.144.304 0 .138-.049.239-.148.302-.099.064-.255.096-.469.096h-.504v-.789Z"/><path fill="#E8000D" d="M104.212 25.212c-.59.001-1.219.059-1.899.18-3.32.596-5.289 3.951-5.289 3.951s2.121 1.323 3.439 2.033c1.227.661 1.751.872 2.708.968.957.096 1.888.092 1.961.378.063.243-.438.842-1.157.848-1.857.016-1.378.189-7.577-3.03-5.503-2.858-10.084-2.016-10.175-2.002-.615.096-6.537.7-10.392 4.376-2.075 1.979-2.839 4.209-2.782 4.592.104.702.45.863.678 1.488.2.55.191 1.59-.12 1.538-.39-.065-1.017-2.092-2.623-2.122-.868-.016-2.092-.057-4.485 3.757-1.567 2.494-3.666 4.971-4.503 5.837-.838.865-3.17 2.79-3.91 3.07-1.413.532-1.696.194-1.791.362-.096.169.693 1.34 2.796 1.5 2.74.21 4.934-1.524 5.054-1.46.047.026-1.847 3.224-2.362 4.629-.57 1.558-.772 2.583-1.077 3.509-.286.868-.451 1.779-.635 2.083-.093.153 2.315-.536 3.93-1.742 1.888-1.413 2.747-2.663 2.747-2.663s-.128 2.034-1.734 3.276c-1.514 1.171-2.588 1.55-2.974 2.113-.071.103-.1 2.233-.663 4.07-1 3.262-1.981 4.746-1.981 4.746s1.622-.018 3.896-1.501c2.211-1.443 3.151-2.46 3.151-2.46s.185 1.243-1.382 2.623c-1.31 1.153-1.908 1.355-2.04 1.532-.073.097-.376 1.636-.663 2.462-.423 1.216-1.166 2.184-1.057 2.337.12.17 2.233-.258 4.647-1.928 1.616-1.119 3.422-2.283 3.422-2.283s-1.189 1.618-2.043 3.477c-1.053 2.29-1.583 3.557-1.45 5.054.007.087 1.483-.747 2.817-1.207 1.03-.355 2.257-.685 3.645-2.253 1.004-1.134 2.154-2.5 2.154-2.5s-.611 1.537-.85 2.98c-.24 1.44-.273 3.572-.097 3.766.092.1 3.494-1.982 4.541-3.186 1.648-1.896 3.062-4.533 3.062-4.533s.097.146.12.314c.024.169-.297 3.493-.193 4.71.126 1.468.202 1.856.306 3.752.028.504-.032.871.088.943.12.072.293-.187.772-.403.478-.216 3.63-1.392 5.383-2.96 3.077-2.75 3.743-4.47 3.743-4.47s-.658 3.478-.706 4.712c-.08 2.04.17 5.348.41 5.517.239.168 1.285-.831 2.603-1.59.645-.37 1.893-1.03 3.969-3.847 1.305-1.77 2.26-3.018 2.413-3.061.158-.044-.847 2.664-.855 3.553-.008.993.47 2.574.723 3.267.201.549.25.847.41 1.614 0 0 2.306-2.25 3.719-3.748 3.191-3.383 2.99-5.295 2.99-5.295-4.74-.524-9.232-2.075-12.02-3.089-7.319-2.662-11.387-6.033-15.627-10.026-2.459-2.315-3.272-4.669-2.75-5.885.307-.713 1.022-1.003 1.022-1.003s-3.559-4.187-3.021-7.954c.315-2.211 3.464-3.072 9.313-1.944 7.485 1.444 15.08 5.703 15.08 5.703s-2.886-2.011-4.01-3.598c-1.126-1.585-1.7-2.835-1.7-2.835s-1.951.32-3.997-.217c-2.052-.537-3.986-.936-5.447-3.512-.444-.782.132-.493.756.314.047.06.504.47 1.152.506.814.045 3.282-.347 6.958-3.578 3.824-3.361 7.09-5.89 9.363-5 2.274.888 3.088 3.027 1.748 4.781-1.341 1.754-1.653 2.475-1.653 2.475s.503.313 1.245 1.082a40.095 40.095 0 0 0 1.556 1.513s2.61-3.291 9.12-7.497c6.511-4.205 9.719-5.384 9.719-5.384s-1.078-1.806-3.925-3.13c-1.963-.911-3.467-1.103-4.302-1.006-.65.075-1.429.395-1.462.84-.02.26.394.515 1 .822.732.37 1.226.461 1.322.653.096.192.271.634.112.654-.803.097-1.7-.24-2.137-.484-1.125-.63-3.744-2.485-5.616-3.552-1.431-.816-2.859-1.324-4.63-1.321h-.001Zm26.685 33.312a1.008 1.008 0 0 0-.342.055c-1.67.574-4.924 1.717-6.724 2.376-1.837.672-6.531 2.773-7.464 3.11-.933.337-1.252.572-1.553.582-.798.03-1.474.244-1.07.493.07.043 5.127.076 8.507.007 4.068-.084 9.607-.108 10.055-.146.556-.046 1.433-.424 3.32-1.386 1.935-.987 2.346-1.048 2.684-1.155.514-.162.214-.267.214-.267-.112-.075-1.873-.679-3.41-1.462-1.251-.637-3.669-2.054-3.669-2.054s-.23-.148-.548-.153Z"/><path fill="#E51636" d="M110.103 123.705c-.137-.138-2.399-1.134-3.817-1.386-1.345-.239-3.696-.017-3.816.051-.119.069-.681 1.659-.903 2.309-.221.65-.889 2.223-.834 2.309.153.24 1.397-.325 3.714.291 1.997.531 3.526 1.3 3.629 1.317.102.017.477-1.283.953-2.412.379-.898.938-2.155 1.006-2.257.068-.103.068-.222.068-.222Zm3.288-.565c-.12.171-1.243 2.3-1.943 3.694-1.192 2.378-1.362 4.447-1.754 4.567-.176.054-2.113-1.095-4.958-1.694-2.22-.466-5.213-.564-5.315-.581-.102-.017-.154-.137-.221-.256-.068-.12-.188-.325-.222-.377a.742.742 0 0 1-.085-.274c-.017-.12.017-.427.05-.581.035-.154 1.407-3.044 1.697-3.917.29-.872 1.057-2.993 1.295-3.13.238-.136 2.494-.906 6.225-.154 2.681.541 5.077 1.967 5.35 2.447 0 0 0 .085-.119.256ZM45.81 132.688c-.525-.568-1.27-1.336-1.389-1.356-.119-.019-1.4.369-1.955.608-.556.24-2.095.967-2.144 1.047-.05.079.824 1.026 1.38 1.703.518.632 1.34 1.515 1.429 1.535.09.02 1.498-.607 2.074-.797.576-.19 2.005-.747 2.045-.757.04-.011-.923-1.426-1.44-1.983Zm5.191 3.087c-.188.151-2.64.427-5.13 1.233-1.811.587-3.99 1.787-4.09 1.737-.099-.05-.883-1.397-2.292-2.962-1.41-1.565-1.529-1.253-1.697-2.209-.04-.227.654-.867 1.806-1.575 1.151-.708 1.736-.946 1.736-.946s.277.172.854.24c.338.039 1.448-.296 1.817-.659.486-.478.724-1.026.952-.966.128.034.112.236.122.425.01.189.772 1.05 1.308 1.368.229.136.526.02 1.002.179.152.051.838.543 1.519 1.227 1.032 1.035 2.172 2.846 2.093 2.908Z"/><path fill="#FFC82D" d="M135.711 30.857c-2.897-.003-5.953.462-9.139 1.52-10.564 3.51-18.938 10.805-20.565 13.69-.281.497 3.095 3.72.614 6.677-2.007 2.391-5.945.822-5.945.822 3.42 2.186 5.321 4.243 5.528 4.63.147.273.239.654.239.654-3.163-2.202-6.047-4.067-9.162-5.56-1.184-.567-16.235-7.382-20.533-4.784-2.443 1.476 1.294 6.925 2.126 7.934 1.227 1.487 4.298 4.107 6.935 5.534 1.877 1.016 1.953.921 1.985 1.368.013.188-.595.416-1.362.238-.678-.158-3.408-1.725-4.415-2.527-1.007-.803-3.021-2.38-3.021-2.38s-.656-.241-.916.16c-.802 1.239 5.832 9.058 15.398 12.923 10.3 4.162 18.509 5.144 33.332 3.747 7.783-.734 15.681-3.806 19.74-5.174 2.751-.927 5.092-1.605 5.092-1.724s-4.772-1.059-9.83-1.514c-8.62-.775-13.267-.39-20.02-.538-9.539-.208-15.017.743-24.553-.981-2.967-.537-6.279-1.873-8.44-3.598-3.347-2.669-7.127-7.286-5.805-8.027 1.273-.714 2.83.965 3.467 1.605 2.604 2.616 2.399 4.34 2.399 4.34s3.274 4.82 16.819 5.204c7.344.208 11.366-3.28 17.71-5.375 9.358-3.092 10.011-4.25 21.486-6.429 11.742-2.23 17.281 1.992 17.281 1.992s2.18-9.073-7.847-17.364c-4.833-3.996-11.195-7.055-18.598-7.063Zm-34.518 4.945c-.608-.004-2.463.44-5.906 3.367-3.672 3.122-4.797 4.013-5.805 4.43-1.007.416-2.073.624-1.954.743.118.12 1.866.588 2.695.684 1.807.208 2.84-.116 2.84-.116s-.086-2.768 1.306-3.957c2.41-2.059 6.693.267 6.693.267s1.573-1.777 1.954-2.616c.474-1.04.237-1.606.237-1.606-.355-.951-1.48-1.13-1.954-1.19a.924.924 0 0 0-.106-.006Zm22.58.598c.811.03 1.285.411 1.494.737.267.413 1.006 1.541-1.581 3.174-2.586 1.633-3.783.397-4.065.16-.282-.24-.926-1.906 1.615-3.312 1.073-.593 1.907-.782 2.537-.76Zm-.451 1.244a2.397 2.397 0 0 0-1.431.468c-.78.578-1.604 1.201-1.141 1.712.463.51 1.649-.012 2.157-.261.508-.25 1.528-1.077 1.186-1.599-.133-.203-.423-.311-.771-.32Zm13.406 18.97s-.974.285-1.704.488c-.73.204-2.19.53-2.15.611.041.082 3.083 2.159 4.139 2.567 1.054.407 2.92 1.18 3.569 1.344.649.162 1.542.284 1.542.447 0 .163-1.217.652-2.84 1.345-1.622.692-3.245 1.588-3.245 1.71 0 .122 5.233.611 7.748.896 2.516.285 5.72.692 6.532.815.811.122 1.663.367 1.622.244-.04-.122-.324-.244-1.176-.61-.852-.367-4.098-2.363-5.883-3.626-1.784-1.262-4.786-3.665-5.963-4.52-1.177-.856-2.191-1.711-2.191-1.711Zm-18.441 47.995c-2.333-.006-4.438.799-5.561 1.888-3.259 3.163-3.083 7.494-3.083 7.494s1.251-.081 2.184.631c.57.436.803 1.165.682 1.213-.351.137-1.338-.853-3.434-.5-2.633.444-4.529 3.271-4.41 3.485.143.255 1.943-.071 5.1.743 2.704.698 5.179 2.409 5.462 3.034.095.208-.946 1.005-2.69 4.5-1.149 2.302-1.649 4.675-1.812 6.149-.046.417-3.029-1.955-6.612-2.45-3.822-.528-5.147-.36-5.808-.136-.41.139-1.022-.135-1.142-.244-.17-.155-.162-.53-.162-.509 0-.102-1.204-.122-1.21-.109-.15.277 1.879 2.151 2.402 3.535 1.216 3.214 1.481 5.766 1.133 5.863-.365.102-2.984-.974-4.09-1.52-3.231-1.595-3.688-2.41-3.974-2.328-.217.062.161 1.834.608 2.858.53 1.217 1.795 2.628 1.277 2.959-.518.331-1.602.196-3.495-.686a73.029 73.029 0 0 0-3.11-1.357s-.101 1.214.104 1.832c.267.805.626 1.545.626 1.545s.132.122.312.231c.181.109.787.529.787.529s-.646-.609-.797-.969c-.217-.516 0-.658.138-.57 1.239.784 1.933 1.142 3.306 1.201 1.73.075 2.58-.639 2.819-1.601.365-1.472-.742-2.935-1.19-3.291-.453-.36-.719-.429-.899-.719-.18-.29-.287-.815-.034-.815s1.892.971 2.623 2.267c.836 1.483.754 3.314 0 4.152-.96 1.066-1.953 1.303-1.953 1.303s.397.327.833.76c.546.543.518.861.606 1.174.056.197 1.133-.359 1.819-.794.686-.436 1.23-1.664 1.724-1.27.424.339.02 1.453-.92 2.091-.99.673-2.234 1.233-2.237 1.628-.008.957.798 2.546 1.758 3.291 1.513 1.176 3.257 1.542 3.86 1.432 1.264-.23 5.435-1.723 8.795-6.59 1.773-2.569 1.718-4.093 1.718-4.093s-.859-.4-.984-.747c-.089-.248 4.1-1.357 8.089-6.162 2.231-2.689 3.022-4.443 4.191-8.637.548-1.963.244-4.059.694-4.092.269-.02.454.924.49 1.54.036.616-.203 1.697.081 1.459 1.209-1.011 3.725-3.564 4.443-7.358.914-4.83 1.022-8.821-4.192-11.921-1.566-.932-3.269-1.315-4.865-1.319Zm11.058 6.661c-.69 0 .568 2.227-.558 6.559-1.665 6.401-5.477 8.712-5.849 9.304-.291.461-2.274 5.633-4.272 8.137-1.975 2.475-3.79 4.029-7.032 5.961-.573.341-.066.791-.088 1.077-.022.286-.756 3.984-3.99 6.99-4.948 4.599-7.424 4.313-7.774 4.665-.153.153 1.029 1.011 2.212.899 1.148-.108 4.8-1.841 7.8-6.092 2.387-3.384 2.831-5.972 2.869-6.155.088-.418.219-.55.614-.289.157.104.341.662.525.594 1.643-.612 6.184-4.495 10.287-10.468 2.989-4.352 5.714-11.375 6.341-14.25.876-4.022.022-6.614-.92-6.903a.573.573 0 0 0-.165-.03v.001Zm-94.846 14.272c-.075.019-.394.809-.788 1.054s-.432.056-.807.452c-.374.395-1.574 2.167-.094 3.445.807.697 2.344.49 2.945.282.598-.206 1.074-1.006.825-1.506-.225-.452-.713-.263-1.05-.734-.337-.471-.412-1.036-.638-1.525-.225-.489-.376-.624-.337-.847.075-.433-.056-.621-.056-.621Zm-4.776 4.476a.927.927 0 0 0-.119.005c-.619.056-1.65.132-3.563.677-1.913.546-4.65 1.318-4.65 1.544 0 .185 3.952.536 5.288.508 1.781-.037 3.844-.866 4.125-1.619.263-.706-.478-1.114-1.081-1.115Zm22.871 1.095s-.769 0-1.556.094c-.788.094-1.763.283-1.763.283s1.2 1.224 1.95 2.259c.75 1.036 1.724 2.592 1.631 2.9-.056.187-1.068-.227-5.906 1.229-3.807 1.144-5.683 2.46-5.814 2.498-.131.037-.243-.791-.768-1.582-.525-.79-1.05-1.543-1.126-1.543-.074 0-.169 1.858-.78 3.069-.645 1.28-1.336 2.217-1.714 1.919-.525-.413.544-1.92 1.032-3.275.344-.958.244-2.993.244-2.993s-.469-.526-.563-.526c-.093 0-.712 1.675-1.387 2.315-.676.641-1.575 1.619-1.932 1.092-.357-.527 1.294-1.449 1.82-2.617.524-1.167.899-1.939.937-3.219.037-1.281.074-1.206-.056-1.224-.132-.018-1.145.469-2.533.451-1.877-.026-1.912-.564-2.08-.602-.17-.037-.358.922-2.101 1.599-1.366.531-2.42.454-2.644.717-.225.264-.226 1.636.243 3.011.325.952 1.37 2.599.75 2.807-.647.218-.825-.284-1.48-1.883-.444-1.08-.47-1.374-.544-1.45-.075-.075-.338-.113-.47-.037-.13.075-.824.904-.918 1.054-.094.151.469.884.694 1.242.225.358.73 1.28.506 1.657-.225.377-.375.414-.506.245-.131-.169-.849-2.32-2.982-3.539-2.438-1.395-5.245.22-5.514 2.559-.308 2.691 2.38 5.581 7.277 7.177 5.363 1.747 8.531-.418 8.531-.418s4.988 2.73 14.477 1.751c9.711-1.001 13.033-3.427 14.103-4.236 1.033-.782 1.162-1.262 1.03-1.224-.13.038-1.556.848-2.663-.207-1.985-1.892-.843-6.005-1.03-6.156-.188-.151-.698.15-1.276.038-.975-.189-1.31-1.132-1.5-1.111-.338.037-.638 1.675-2.138 1.525-1.218-.122-1.782-1.281-1.717-3.295.055-1.704.236-2.354.236-2.354Zm47.69 5.442c.36-.024.853.175 1.337.81.961 1.262.27 4.115-.496 4.098-.71-.017-.066-1.278-.033-1.594.01-.1.143-.617-.182-1.509-.314-.863-1.282-.974-1.156-1.444.05-.188.25-.342.53-.361Zm-82.817 7.716c-.167-.08-1.139 3.907 6.598 5.956 2.119.562 6.138.156 7.753-.332 1.313-.398 1.551-.681 1.662-.7.19-.032.443 0 .443.127s.016.35.016.35 3.956 1.779 9.715 1.683c5.76-.095 11.868-1.254 16.361-3.383 2.24-1.061 2.39-1.271 2.469-1.446.079-.175.19-.682.173-.904a30.729 30.729 0 0 0-.063-.684s-1.55 1.159-7.832 3.161c-3.298 1.052-7.248 1.716-13.56 1.366-5.636-.312-7.372-1.629-7.834-1.715-.426-.08-2.943 2.012-9.191.302-5.049-1.383-6.014-3.448-6.71-3.781Zm73.74.834c-.723.002-2.022.361-3.582 2.165-2.082 2.408-2.83 5.492-2.678 5.696.152.204.38-1.555 3.478-3.912 3.098-2.358 3.732-1.848 4.1-2.511.178-.321-.19-1.133-.8-1.362a1.51 1.51 0 0 0-.518-.076Z"/><path fill="#fff" d="M97.122 41.275c-.518-.004-1.02.105-1.471.382-2.516 1.54-.88 5.605 1.584 8.055 2.415 2.4 5.681 3.734 7.392 2.953 1.99-.908 1.562-2.675 1.562-2.675s-1.094 1.917-2.993 1.868c-2.943-.075-5.306-3.484-5.306-3.484s.457-.168 1.458-.329c.801-.128 1.484-.353 1.484-.353s-1.113-.41-2.014-.655c-.93-.253-1.885-.557-1.885-.557s-.888-1.857.554-3.056c1.61-1.338 4.426.026 4.426.026s-2.546-2.157-4.79-2.175Zm22.518 42.961s-1.075.627-1.525.824c-.451.198-1.23.668-1.226.79.012.266.694.243 2.497.498 1.765.25 2.925 1.049 2.855 1.671-.104.928-1.722 2.467-4.461 3.152-2.74.684-7.339 1.617-8.691 1.629-.522.004-.37.348-.185.453.185.104 1.437 1.055 1.483 1.508.046.452-.417 1.208-1.818 1.613-1.607.464-4.011.522-4.485.499-.474-.024-.474.185-.416.313.058.127 1.052.893 1.121 1.52.069.626-.225 1.627-4.588 2.085-6.773.711-8.946.765-8.957 1.024-.011.256.674.166 3.71.383 2.762.198 7.465-.295 9.292-1.137 2.82-1.3 1.264-3.24 1.259-3.353-.011-.325 3.029.011 3.861-.244 1.207-.37 2.353-1.61 2.023-2.645-.29-.905-.775-1.137-.798-1.23-.023-.093 2.799.064 6.368-.754 2.127-.488 5.086-1.915 6.01-3.783.741-1.497-.358-2.773-1.93-3.18-1.572-.405-2.141-.337-2.184-.417-.069-.128.453-.273.705-.43.439-.272.974-.73.974-.73l-.431-.041a10.906 10.906 0 0 0-.462-.018h-.001Zm-53.561.4c-.29 0-.538.018-.538.018s-1.456 1.237-.23 3.06c.947 1.41 3.948.707 3.992.76.045.054-.098.752-.07 1.124.034.47.353 1.15 2.177 1.513 1.385.275 4.327.248 5.967.106 1.916-.166 2.026-.035 2.027-.221 0-.062-.256-.186-.785-.212-.529-.027-3.287-.054-6.434-.638-1.859-.345-2.002-1.327-1.79-1.751.214-.43.617-.593.52-.78-.084-.161-.415.027-1.314-.008-.925-.036-2.837-.098-3.427-1-.59-.902.609-1.953.609-1.953s-.413-.017-.704-.017Zm-10.75 10.501c-1.006 0-1.006.504-1.006.67 0 .201.085.669.875.669.373 0 .767.028.917.066.616.132.755.326.802 1.104.051.83.051 1.55.051 5.549v4.627c0 2.399 0 4.47-.129 5.548-.102.75-.212 1.032-.416 1.074-.299.067-.569.097-.858.097-.789 0-.85.491-.85.642 0 .209.093.696.955.696.602 0 1.388-.026 2.082-.049l1.218-.03 1.176.028c.762.023 1.71.051 2.596.051.883 0 .928-.58.928-.696 0-.31-.242-.642-.773-.642-.32 0-.883-.052-1.222-.102-.145-.023-.505-.081-.572-1.021-.078-1.115-.078-3.191-.078-5.596v-1.34l9.977 11.063.018.016c1.16 1.031 1.952 1.672 3.488 1.815.568.054 1.05.054 1.846.054h2.279c.29 0 1.06 0 1.06-.696 0-.32-.238-.643-.772-.643-.186 0-.7-.126-1.58-.479-1.256-.492-2.451-1.543-3.454-2.509l-3.033-3.305-7.232-7.809c1.221-1.269 4.573-4.648 5.353-5.366 1.112-1.023 2.341-2.07 3.03-2.07.332 0 .635.084.692 1.088.053.827.053 1.546.053 5.534v3.828c0 3.439.783 5.75 2.468 7.272 2.115 1.921 4.897 1.921 6.086 1.921 1.585 0 3.667-.227 5.713-1.994 2.315-1.989 2.632-5.127 2.632-8.221v-2.806c0-3.989 0-4.707.052-5.532.05-.894.235-1.026.615-1.097.298-.05.431-.072.678-.072.786 0 .902-.419.902-.667 0-.445-.329-.67-.978-.67-.665 0-1.575.032-2.24.056l-.735.022-.07-.003a70.191 70.191 0 0 0-2.939-.075c-.65 0-.979.225-.979.67 0 .2.085.668.876.668.31 0 .692.03.835.065.62.133.751.317.797 1.1.052.827.052 1.546.052 5.535v3.278c0 2.722-.103 4.907-1.388 6.197-1.161 1.164-2.695 1.289-3.3 1.289-.896 0-1.95-.116-2.991-.975-1.13-.926-1.882-2.321-1.882-6.117v-3.672c0-3.989 0-4.707.052-5.533.051-.893.235-1.025.617-1.096.296-.049.429-.072.676-.072.79 0 .851-.51.851-.667 0-.67-.758-.67-1.007-.67l-1.92.045-1.292.033-5.015.002-1.49-.044-1.207-.036c-.74 0-.85.42-.85.67 0 .534.492.644.677.685l.02.005c.005.014.01.04.01.1 0 .264-.582.952-1.097 1.56l-.11.13c-.448.527-2 2.146-3.37 3.574-.562.585-1.076 1.121-1.474 1.541v-.208c0-3.998 0-4.719.05-5.547.052-.897.237-1.03.618-1.1.29-.048.425-.071.654-.071.76 0 .799-.558.799-.67 0-.444-.33-.669-.98-.669l-1.854.045-1.317.035-1.157-.028a81.779 81.779 0 0 0-2.51-.052Zm-14.98 6.163a.105.105 0 0 0-.049.002c-.365.103-.438 1.23-.409 2.697.03 1.467.117 1.923-.014 2.01-.133.088-1.76-.687-3.084-1.305-1.665-.778-3.843-2.187-3.974-2.157-.16.035 1.49 2.186 2.06 3.418.672 1.453 1.272 2.787 1.082 2.861-.19.073-1.082-.338-2.207-.734-1.125-.396-2.323-.851-2.411-.748-.088.103 1.356 1.702 2.028 2.758.673 1.056.901 1.264.901 1.411 0 .147-.182.335-.328.35-.146.014-1.067.073-1.812.088-.745.014-1.592-.059-1.695.029-.103.088 1.384 1.822 2.528 2.949 1.622 1.599 2.952 2.229 2.996 2.303.043.074-.79.521-1.812.997-2.236 1.042-2.66.866-2.704 1.042-.03.121 1.89.705 3.273 1.191 1.798.631 3.274.731 3.668.775.395.044-.366.41-.614.557-.248.147-.73.351-.73.455 0 .205 3.296 1.84 6.056 2.078 2.894.25 5.47-.133 6.877-.875.278-.147.263-.367-.015-.469-.352-.13-.82.524-4.969.425-3.697-.088-6.342-1.086-6.459-1.218-.1-.113 1.009-.499 1.49-.748.483-.249 1.082-.44 1.024-.704-.066-.295-1.077-.238-2.119-.352-1.33-.147-4.749-1.013-4.822-1.101-.073-.087 1.023-.616 1.564-.924.54-.308 1.066-.645 1.227-.675.16-.029.436-.159.453-.293.044-.352-.292-.41-.453-.513-.16-.103-.72-.621-2.499-2.025-1.096-.866-2.133-1.922-2.192-2.025-.058-.102.92-.131 1.68-.161.76-.029 1.156-.073 1.36-.176.204-.102.423-.191.409-.44-.015-.249-.38-.777-1.023-1.628-.471-.625-1.374-1.571-1.345-1.658.03-.088.687.175 1.564.439.877.265 1.924.761 2.173.57.248-.191.14-1.026-.478-2.256-.862-1.717-1.814-2.917-1.712-2.99.102-.074 1.625.907 2.633 1.464 1.009.557 2.716 1.479 2.906 1.45.19-.029.528-.745.484-1.406-.044-.66-.16-1.863-.087-1.907.073-.044 1.84 2.054 2.644 2.773.804.719 1.637 1.379 2.031 1.701.395.323 1.023.94 1.17 1.072.146.132.467.103.54-.162.073-.264.015-1.57 0-2.01-.015-.44.03-1.672.102-1.731.074-.059.834 1.467 1.579 2.553.513.748 1.637 2.552 1.958 3.095.321.543.84 1.25 1.008 1.145.468-.294-.967-2.486-1.753-3.91-.818-1.482-3.272-6.328-3.418-6.343-.146-.015-.25 2.36-.265 3.372-.014 1.012-.043 2.391-.117 2.435-.073.044-1.505-1.335-2.528-2.347-1.023-1.012-2.309-2.377-2.572-2.978-.247-.564-.545-1.449-.798-1.497v.001Zm12.107 12.55c-.149.018-.397.935-.62 1.672-.217.723-.957 3.182-1.144 4.474-.186 1.293.478 2.623.717 2.743 0 0 .504-3.573.69-4.472.186-.899 1-3.164 1-3.482 0-.24-.494-.954-.643-.935Zm36.712 6.675a.114.114 0 0 0-.031.001c-.457.076-2.744 2.45-4.333 5.543-1.926 3.746-2.375 6.328-2.402 6.466-.034.172-.885-1.028-.972-2.839-.136-2.84.596-5.56 0-5.765-.566-.195-2.93 4.448-3.578 5.731-.647 1.283-3.408 6.244-2.965 6.62.505.431 2.59-3.575 3.17-4.533.553-.916 2.112-3.712 2.112-3.712s-.05 3.062.46 4.071c.511 1.009 1.21 2.309 1.908 2.173.7-.137.239-.599.614-1.728s2.3-5.457 2.965-6.586c.664-1.13 3.169-4.824 3.1-5.389-.003-.032-.02-.05-.048-.053Zm14.947 2.861c-.443.002-.734.041-.82.088-.171.093-.42.53-.622 1.03-.202.499-.404 1.341-.404 1.435 0 .094.482-.172 2.363.359 1.88.53 2.548.561 2.673.53.124-.031.45-.732.668-1.295.218-.562.467-1.216.467-1.216-.063-.157-1.212-.594-2.596-.797a11.881 11.881 0 0 0-1.729-.134Zm-60.113 9.03c-.175.029-.676.284-.919.362-.278.09-1.112.388-1.172.458-.058.068.457.588.635.828.18.239.755.887.864.896.045.004.735-.299 1.112-.418.377-.12.724-.28.833-.389.052-.052-.396-.707-.635-1.016-.238-.309-.585-.668-.664-.718-.01-.006-.029-.007-.054-.003Z"/></svg>