<svg xmlns="http://www.w3.org/2000/svg" width="180" height="180" fill="none"><path fill="#330A57" d="M77.324 138.839v1.026h.67c.32 0 .536-.044.652-.143a.452.452 0 0 0 .171-.375c0-.1-.022-.193-.077-.271a.533.533 0 0 0-.238-.181c-.094-.039-.282-.056-.547-.056h-.63Zm0 2.961h-.552v-3.429h1.177c.398 0 .691.033.868.099a.85.85 0 0 1 .432.325c.105.16.16.331.16.502a.923.923 0 0 1-.27.656c-.178.182-.416.287-.709.314.116.05.216.111.288.177.138.138.304.369.508.684l.41.672h-.664l-.31-.546c-.237-.424-.425-.689-.575-.794-.099-.082-.248-.115-.442-.115h-.32v1.455Zm.846-4.427c-.453 0-.879.121-1.305.347a2.456 2.456 0 0 0-.99.982 2.71 2.71 0 0 0-.353 1.334c0 .458.116.904.348 1.323.233.419.559.75.984.987.415.232.852.353 1.316.353.454 0 .89-.121 1.31-.353.421-.237.747-.568.98-.987.232-.419.348-.865.348-1.323 0-.463-.116-.904-.354-1.334a2.49 2.49 0 0 0-.99-.982c-.425-.226-.857-.347-1.294-.347Zm0-.524c.526 0 1.046.138 1.554.408a2.93 2.93 0 0 1 1.183 1.18c.282.513.426 1.048.426 1.599 0 .551-.138 1.081-.42 1.582a2.931 2.931 0 0 1-1.172 1.191 3.218 3.218 0 0 1-1.57.419 3.228 3.228 0 0 1-1.582-.419 2.931 2.931 0 0 1-1.172-1.191 3.133 3.133 0 0 1-.426-1.582c0-.551.15-1.086.431-1.599a2.93 2.93 0 0 1 1.184-1.18 3.283 3.283 0 0 1 1.564-.408Zm32.949-36.781s2.61 13.663 14.205 9.489c0 0 5.026.011 10.937-8.358 0 0 1.753 2.652-1.758 9.918 0 0 3.937 2.647 3.71 4.191 0 0-13.132 17.174-24.728 18.922 0 0-8.946-15.874-23.388-5.1 0 0-3.943 2.641-4.38 6.169 0 0-19.657-18.095 2.445-33.053 0 0 7.657-5.502 22.957-2.178Zm2.201-9.913s-1.974 3.959-1.537 6.39c0 0-40.657-10.63-49 21.1 0 0-4.39 12.333 8.056 25.787 0 0-28.653 9.665-41.3-18.994 0 0-7.846-23.15 23.87-34.795 0 0 26.255-9.45 59.911.512ZM34.232 35.842s15.521.243 37.169.05c0 0 2.167 15.867-15.316 14.081 0 0-11.374.651-21.853-14.13Zm129.85 27.48s-1.106 11.026-11.397 23.569l-5.031-1.103s-3.29 7.929-6.569 7.703c0 0 4.606-11.672-6.541-14.551-11.148-2.884-.653-.447-.653-.447s-9.836-3.98-19.031 9.235c0 0-60.459-24.75-98.86 23.245l.077-66.552 15.963-5.27s12.01 17.422 30.594 13.915c0 0 13.126-2.404 11.827-17.395 0 0 28.432-4.157 52.69 8.216l-11.153.43s31.263 4.448 48.084 19.004Z"/></svg>