<svg xmlns="http://www.w3.org/2000/svg" width="180" height="180" fill="none"><path fill="#FE5C00" d="M70.186 58.166H37.589a20.919 20.919 0 0 0-19.667 13.749L0 120.823h47.177l-1.282 3.478L62.03 135.99h24.222a25.61 25.61 0 0 0 24.032-16.776l.328-.914 3.682 2.51h27.728a21.2 21.2 0 0 0 19.94-13.994l17.635-48.663h-46.89l1.241-3.383L117.69 43H93.236c-9.711 0-19.709 6.056-23.05 15.166Z"/><path fill="#000" d="M22.136 73.606 13.98 95.824l4.95 3.491h-6.246L6.48 116.241h47.15l-2.333 6.342 12.18 8.824h22.94a21.106 21.106 0 0 0 19.872-13.966l2.196-6.096 7.174 4.896h26.282a16.656 16.656 0 0 0 15.658-10.979l15.507-42.8h-46.986l2.182-6.055-12.152-8.81H93.563a21.107 21.107 0 0 0-19.804 13.816l-.382 1.05H38.121a16.992 16.992 0 0 0-15.985 11.143Z"/><path fill="#FE5C00" d="m119.245 67.482 3.423-9.33-8.047-5.837H93.468a16.252 16.252 0 0 0-15.249 10.639l-8.02 21.85 22.287 17.73-4.515 12.684H73.323l4.023-11.088H16.04l-2.727 7.392H60.38l-3.424 9.302 8.047 5.864h21.29a16.015 16.015 0 0 0 15.044-10.502l8.115-22.108-22.095-17.58 4.624-12.753h14.307l-4.051 11.36h61.294l2.741-7.623h-47.027Z"/><path fill="#FE5C00" d="M52.36 99.329c4.487 0 8.497-2.796 10.052-7.01l7.365-20.05-7.01-5.142H38.461a12.79 12.79 0 0 0-12.003 8.374l-6.846 18.631 7.092 5.197H52.36ZM40.89 71.913h16.039L48.814 94.65H32.679l8.21-22.736ZM140.576 102.779a6.223 6.223 0 0 1-5.851 4.119h-11.852l9.929-27.141h-12.916l-9.738 27.005 7.242 4.923h24.059a12.581 12.581 0 0 0 11.825-8.278l8.606-23.65h-13.052l-8.252 23.022Z"/></svg>