<svg xmlns="http://www.w3.org/2000/svg" width="180" height="180" fill="none"><path fill="#4D1977" d="M88.587 48.146c-5.399 0-9.576.334-10.444.41l-.268.016-.89.051-.62.641-12.786 13.163-.65.669v38.189l.629.666 12.045 12.762.769.809 1.1-.095.382-.033c.472-.038 4.833-.39 10.5-.39 3.768 0 7.212.154 10.246.463l.353.049 1.143.149.804-.823 12.547-12.864.649-.672V87.968l-2.039-.231-12.674-1.429-2.554-.29v7.706c-.946.941-2.597 2.59-3.55 3.54a121.626 121.626 0 0 0-4.685-.089c-2.117 0-3.994.054-5.406.114-.804-.848-1.99-2.1-2.738-2.882V70.292c.396-.41.932-.96 1.504-1.551a1538.45 1538.45 0 0 0 2.752-2.849c1.333-.038 2.646-.058 3.93-.058 1.263 0 2.52.02 3.733.057 1.108 1.098 3.33 3.3 4.46 4.425v6.522l2.067.206 12.674 1.267 2.526.254V63.107l-.635-.668-12.525-13.075-.621-.651-.904-.057-.247-.012c-3.203-.332-6.767-.498-10.577-.498ZM59.4 49.544l-2.6.343-.912.12C28.082 53.727 5.777 63.534 4.841 63.95l-.492.225L3 64.787V94.154l3.28-1.542 1.141-.535c1.422-.672 5.338-2.465 11.103-4.676l.492-.18 1.52-.549V76.98c.868-.311 1.705-.607 2.513-.889v33.439a198.463 198.463 0 0 0-5.456 2.314l-.476.208-1.367.608V132.664l3.31-1.616 1.133-.557a204.317 204.317 0 0 1 25.351-10.14l.531-.156 1.65-.486v-18.542l-2.958.876-1.02.304c-1.128.324-2.28.667-3.436 1.025V70.937c.919-.23 1.788-.444 2.619-.642v9.438l2.811-.644.983-.224c3.557-.812 6.95-1.486 10.089-2.002l.667-.115 1.921-.32V49.543Zm57.814.248v18.021l1.99.275.699.095.021.004.028.001c.409.048 1.164.155 2.23.325v35.591l.331.548 9.52 15.784.48.79.889.24.296.084c1.531.431 9.689 2.823 18.114 7.057l.48.24 1.369.691 1.164-1.009 16.082-13.901.798-.689v-30.37c.585.293 1.178.591 1.771.895l.014.007.014.007 1.171.588L178 86.729V67.093l-1.298-.629v.002l-.452-.22c-6.316-3.145-13.866-6.049-22.412-8.614l-1.051-.305-2.943-.853V75l1.574.525c.903.298 2.053.678 2.964.981v29.41c-.896.779-2.329 2.026-3.317 2.888-2.004-.752-5.694-2.13-7.282-2.725-.882-1.464-2.915-4.858-3.698-6.168V72.276l2.837.717 2.865.723V55.334l-1.799-.406-.572-.127c-10.564-2.62-19.363-3.996-22.652-4.468l-.903-.136-2.646-.405Z"/></svg>