<svg xmlns="http://www.w3.org/2000/svg" width="180" height="180" fill="none"><path fill="#231F20" d="M73.583 148.363v-3.158l-7.372 7.627-1.61 1.666h51.239v-28.741l-.793.744-7.732 7.235v-2.386h-.008l-.008.008h.012v17.005H73.583Z"/><path fill="#231F20" d="m90.208 139.701 2.326-2.281 3.461-3.389h-.04V79.44h19.581l6.014-5.431H90.208V139.7Z"/><path fill="#231F20" d="M115.536 85.098h11.534v-16.65l-5.52 5.56v5.432l-6.014 5.658ZM98.782 81.992v49.366l5.637-5.67V81.992h-5.637ZM84.607 79.44l5.601-5.431H59.433v5.43l-5.937 5.659h11.595V79.44h19.516ZM90.54 37.143h-.044v28.652h13.923v-16.46h16.714-.004.004l11.651-12.192H90.54Z"/><path fill="#231F20" d="M132.784 37.143v11.606l-11.651 11.04h23.185V26.014l-11.534 11.13ZM90.495 37.143H47.353v11.809L36.47 59.79h22.651V49.392l17.163.005 14.211-12.254ZM90.208 139.701h-8.395l-5.46 5.848h28.058v-11.506l-5.435 5.658h-8.768Z"/><path fill="#231F20" d="M149.79 20H30v45.848h17.244v25.069h22.99l-.024 29.138H58.85v40.097h62.465v-40.057h-11.339V90.913h22.808l-.024-25.07h17.034V20h-.004Zm-2.734 3.009v39.785h-28.503v-10.62h-11.356v13.621h22.51V87.86h-16.888v-5.868h-5.622v41.116h11.381v34.039H61.92v-34.08h11.554V81.992h-5.569v5.868H50.9V65.795h22.655v-13.62H61.867v10.62H33.235V23.008h113.821Z"/><path fill="#E1251B" d="M127.07 68.448H53.496v16.65l5.937-5.658v-5.431h62.117l5.52-5.56Z"/><path fill="#E1251B" d="M96 134.031h-.005l-3.461 3.389-2.326 2.281V74.009l-5.6 5.431v54.636h-8.255v11.473l5.46-5.848h17.163l5.435-5.658v-.012h-8.412ZM115.536 79.44v5.658l6.014-5.658v-5.431l-6.014 5.431ZM90.54 37.143h42.244l11.53-11.13H36.471V59.79l10.882-10.838v-11.81H90.54Z"/><path fill="#E1251B" d="m121.133 59.79 11.651-11.04V37.142l-11.651 12.193V59.79ZM76.284 49.397v16.398h14.211V37.143l-14.21 12.254ZM98.782 131.358h.02l.012-.008h8.497-.004.008v2.386l7.732-7.235.793-.744v-.069h-11.421l-5.637 5.67ZM81.918 81.992h-5.634v43.652H64.601v28.854l1.61-1.666 7.372-7.627v-13.847h8.335V81.992Z"/><path fill="#B1B1B1" d="M67.905 81.992h14.013l2.69-2.552H65.09v5.658H53.496l-2.5 2.657-.096.105h17.005v-5.868ZM61.863 52.175h11.688l2.733-2.778-17.163-.005V59.79h-22.65l-3.236 3.005h28.628v-10.62ZM144.318 26.014V59.79h-23.185l-2.576 3.005h-.004 28.503V23.008l-2.738 3.005ZM107.197 65.795v-13.62h11.356l2.576-2.84h.004-16.714v16.46h2.778ZM74.226 147.708l-.643.655h33.728v-17.005h-.012l-2.872 2.673h-.016V145.548H76.353l-2.127 2.16Z"/><path fill="#B1B1B1" d="M107.197 123.108V81.992h5.622l2.717-2.552H95.955v54.591h.044l2.803-2.673h-.02V81.992h5.637v43.696h11.421v28.81H64.601l-.788.781-1.893 1.868h56.658v-34.039h-11.381Z"/><path fill="#B1B1B1" d="M127.07 68.448v16.65h-11.534l-2.701 2.746-.016.016h16.888V65.795l-1.234 1.238-1.403 1.415Z"/><path fill="#fff" d="M121.133 59.79V49.336l-2.576 2.839h-.004v10.62h.004l2.576-3.005ZM147.056 23.009H33.236v39.785l3.235-3.004V26.014H144.317l2.738-3.005Z"/><path fill="#fff" d="M104.419 65.795H76.285V49.396l-2.734 2.779v13.62H50.9V87.86l.097-.106 2.5-2.66V68.448h73.573l1.403-1.415 1.234-1.238h-25.288Z"/><path fill="#fff" d="M76.284 125.644V81.992h-2.81v41.075H61.92v34.08l1.893-1.868.788-.781v-28.854h11.683ZM112.819 81.992v5.868l.016-.017 2.701-2.746V79.44l-2.717 2.552ZM98.814 131.35l-.012.008-2.803 2.673h8.428l2.872-2.673.008-.008h.004-8.497Z"/><path fill="#fff" d="m84.607 79.44-2.69 2.552v49.366h-8.334v17.005l.643-.655 2.127-2.16v-11.473h8.254V79.44Z"/><path fill="#231F20" d="M126.193 154.89c-1.452 0-2.674 1.113-2.674 2.629 0 1.517 1.222 2.633 2.674 2.633 1.451 0 2.652-1.116 2.652-2.633 0-1.516-1.217-2.629-2.652-2.629Zm0 4.829c-1.206 0-2.144-.938-2.144-2.2 0-1.262.938-2.192 2.144-2.192 1.205 0 2.127.938 2.127 2.192 0 1.254-.938 2.2-2.127 2.2Z"/><path fill="#231F20" d="M127.402 156.872c0-.607-.36-.87-1.076-.87h-1.153v3.034h.453v-1.319h.538l.801 1.319h.514l-.866-1.335c.441-.057.789-.295.789-.833v.004Zm-1.776.469v-.954h.631c.32 0 .659.081.659.453 0 .465-.343.501-.736.501h-.554Z"/></svg>