<svg xmlns="http://www.w3.org/2000/svg" width="180" height="180" fill="none"><path fill="#fff" d="m128.85 78.43 3.039-12.265-18.065-12.57H95.207l5.062-20.588L15 33l20.231 15.91-9.707 39.478 17.635 12.463H61.6l-2.076 8.384 17.282 12.758H94.38l-6.106 24.832h34.076l4.503-18.31a4.167 4.167 0 0 0 4.258-.52 3.848 3.848 0 0 0 1.366-3.457h14.084l4.808-19.569h7.11L165 78.43h-36.15Zm27.031 23.234h-7.11l-4.808 19.568h-18.732l-5.48 22.288H92.498l6.106-24.832H77.897L63.268 107.89l2.562-10.345H44.214L29.28 86.992l9.679-39.362-14.401-11.323 71.485.004-5.161 20.998.788-.407h21.114l15.344 10.674-3.51 14.162h36.162l-4.898 19.926Z"/><path fill="#000" d="M131.47 125.03a2.834 2.834 0 0 1-3.351 2.861 2.849 2.849 0 0 1-1.474-.764 2.826 2.826 0 0 1 .422-4.383 2.839 2.839 0 0 1 1.592-.469 2.784 2.784 0 0 1 2.811 2.755Zm-4.97 0a2.144 2.144 0 0 0 3.673 1.554 2.1 2.1 0 0 0 .587-1.536 2.126 2.126 0 0 0-2.122-2.216 2.13 2.13 0 0 0-2.138 2.198Zm1.702 1.426h-.642v-2.755a7.402 7.402 0 0 1 1.061-.084 1.47 1.47 0 0 1 .944.218.695.695 0 0 1 .287.588.71.71 0 0 1-.573.656v.034c.268.084.403.301.487.672.036.233.104.458.202.671h-.673a2.176 2.176 0 0 1-.219-.671c-.05-.287-.218-.421-.573-.421h-.303l.002 1.092Zm.016-1.546h.303c.353 0 .639-.118.639-.403 0-.251-.186-.419-.589-.419a1.547 1.547 0 0 0-.353.032v.79Z"/><path fill="#000" d="m124.617 81.736 3.509-14.161L112.783 56.9H91.667l-.788.409 5.165-20.998-71.486-.005 14.4 11.323-9.679 39.362 14.935 10.554h21.618L63.27 107.89l14.628 10.8h20.706l-6.106 24.832h27.251l5.482-22.29h18.73l4.809-19.568h7.109l4.898-19.928h-36.16Z"/><path fill="#000" d="M151.766 96.43h-32.585l5.655 4.444-1.392 5.661h18.729l-2.325 9.464h-18.73l-5.482 22.288H99.189l7.068-28.749-7.23 3.917h-19.4l-10.425-7.697 4.436-17.92-8.62 4.75H45.796l-10.883-7.692 9.634-39.183-5.654-4.448 23.194.003-10.29 41.858h11.17l9.198-37.409-5.653-4.447h23.196l-6.353 25.834 9.594-4.97h18.185l11.037 7.677-2.913 11.742h-16.336l2.45-9.902h-18.13l5.655 4.43-6.9 27.853h11.381l3.089-12.475h10.236l-5.644-4.49h49.033l-2.325 9.462Z"/><path fill="#B4975A" d="M110.702 91.463h-10.236l-3.089 12.475H85.995l6.901-27.853-5.652-4.43h18.131l-2.454 9.9h16.337l2.912-11.743-11.037-7.678H92.948l-9.594 4.97 6.353-25.836H66.511l5.655 4.447-9.197 37.41H51.797L62.09 41.267l-23.195-.003 5.654 4.447-9.637 39.182 10.885 7.694h19.222l8.62-4.748-4.437 17.918 10.427 7.697h19.398l7.23-3.917-7.07 28.75h16.45l5.481-22.289h18.73l2.325-9.464h-18.729l1.392-5.661-5.655-4.443h32.585l2.325-9.46H105.06l5.642 4.49v.002Zm12.269 17.283h16.379l-.565 2.294h-16.379l.565-2.294Zm-14.865-29.402h-2.358l1.885-7.607h2.357l-1.884 7.607Zm-68.68 6.034-2.004-1.415 9.616-39.106-1.756-1.38h13.98l-.566 2.294H49.2l-9.773 39.607Zm27.064 2.254H50.76l.564-2.293h13.38l9.95-40.473-1.754-1.385h13.985l-.564 2.297h-9.537L66.49 87.632Zm7.207 18.696-1.992-1.47 8.302-33.532 13.484-6.981h16.949l3.298 2.293H94.061L82.018 72.89l-8.32 33.438Zm30.29-10.363-3.089 12.475H84.954l.57-2.293h13.588l3.09-12.475h7.066l-.569 2.293h-4.712Zm47.28-6.785-.566 2.293h-35.359l-10.979 44.601h-2.353l11.191-45.518-1.756-1.381 39.821.003.001.002Z"/><path fill="#fff" d="M105.747 79.344h2.358l1.885-7.607h-2.358l-1.885 7.607Z"/><path fill="#fff" d="m113.738 66.64-3.3-2.295H93.489l-13.48 6.982-8.302 33.532 1.992 1.469 8.318-33.437 12.044-6.251h19.677Zm-4.47 27.03H102.2l-3.09 12.475H85.521l-.57 2.295h15.945l3.091-12.475h4.712l.568-2.295Zm-22.95-47.894.564-2.297H72.898l1.756 1.38-9.951 40.473h-13.38l-.564 2.293h15.73l10.297-41.852 9.533.005-.002-.002ZM59.263 43.48l-13.982-.003 1.756 1.381-9.616 39.106 2.003 1.415 9.773-39.605 9.5.002.566-2.296Zm80.085 65.266H122.97l-.564 2.293h16.379l.564-2.293Z"/><path fill="#fff" d="M102.012 136.078h2.352l10.979-44.603h35.36l.564-2.295h-39.821l1.756 1.38-11.19 45.518Z"/></svg>