<?xml version="1.0" encoding="UTF-8"?>
<svg id="Layer_1" data-name="Layer 1" xmlns="http://www.w3.org/2000/svg" version="1.1" viewBox="0 0 288 288">
  <defs>
    <style>
      .cls-1 {
        fill: #be0000;
        stroke-width: 0px;
      }
    </style>
  </defs>
  <g id="UU_Logo_Red_" data-name="UU Logo (Red)">
    <g>
      <polygon class="cls-1" points="142.25 77.53 142.25 101.24 149.6 101.24 149.6 155.82 138.41 155.82 138.41 131.78 145.74 131.78 145.74 108.07 107.45 108.07 107.45 131.78 114.79 131.78 114.79 155.82 103.35 155.82 103.35 101.24 110.68 101.24 110.68 77.53 72.4 77.53 72.4 101.24 79.74 101.24 79.74 164.45 94.91 179.53 114.79 179.53 114.79 194.99 129.97 210.07 193.09 210.07 208.26 194.99 208.26 131.78 215.6 131.78 215.6 108.07 177.31 108.07 177.31 131.78 184.66 131.78 184.66 186.36 138.41 186.36 138.41 179.53 158.03 179.53 173.2 164.45 173.2 101.24 180.55 101.24 180.55 77.53 142.25 77.53"/>
      <g>
        <path class="cls-1" d="M207.17,203.49c-1.04,0-1.93.34-2.66,1.02-.74.68-1.11,1.5-1.11,2.46s.37,1.79,1.1,2.47c.74.68,1.63,1.03,2.67,1.03s1.94-.34,2.68-1.03c.74-.68,1.11-1.51,1.11-2.47s-.37-1.78-1.11-2.46c-.74-.68-1.63-1.02-2.68-1.02M209.47,209.11c-.63.59-1.4.88-2.3.88s-1.67-.29-2.3-.88c-.63-.59-.94-1.3-.94-2.13s.31-1.54.95-2.12c.64-.59,1.4-.88,2.3-.88s1.67.29,2.3.88c.63.59.95,1.29.95,2.12s-.31,1.55-.95,2.13"/>
        <path class="cls-1" d="M208.89,206.15c0-.48-.22-.81-.65-.97-.24-.09-.62-.14-1.14-.14h-1.46v3.83h.73v-1.51h.58c.39,0,.67.04.82.12.26.14.4.44.4.88v.3l.02.12s0,.03,0,.04c0,.01,0,.03.01.04h.68l-.03-.05s-.03-.1-.03-.2c0-.1-.01-.2-.01-.29v-.28c0-.19-.07-.39-.22-.59-.15-.21-.39-.33-.71-.38.25-.04.45-.1.6-.18.27-.16.4-.41.4-.75M207.75,206.8c-.16.06-.39.09-.71.09h-.67v-1.37h.63c.41,0,.71.05.9.14.19.09.28.28.28.55,0,.29-.14.49-.43.59"/>
      </g>
    </g>
  </g>
</svg>