<svg xmlns="http://www.w3.org/2000/svg" width="180" height="180" fill="none"><mask id="a" width="139" height="121" x="21" y="29" maskUnits="userSpaceOnUse" style="mask-type:luminance"><path fill="#fff" d="M160 29H21v120.334h139V29Z"/></mask><g fill="#002855" mask="url(#a)"><path d="M154.206 29h-22.727c-3.927-.064-5.408 1.417-6.567 3.22l-16.868 24.995-16.096-24.479-.515-.773s-.45-.708-1.223-.708c-.772 0-1.223.708-1.223.708l-.515.773-15.58 24.48L55.509 32.22c-1.16-1.804-2.64-3.285-6.567-3.221H26.15v20.42h12.62c2.639 0 3.862.13 5.73 2.32l.772 1.095 25.495 39.94s.837 1.288 2.253 1.288c1.546 0 2.383-1.288 2.383-1.288l14.872-22.29 15.451 22.225s.901 1.289 2.189 1.353c1.417.064 2.189-1.288 2.189-1.288l25.109-39.94.773-1.095c1.287-2.062 2.961-2.255 5.601-2.255l12.747-.064V29h-.128Z"/><path d="m121.886 86.14-13.714 21.773L90.468 82.21l-13.65 20.035 28.715 45.092c.966 1.675 1.802 1.933 2.189 1.933.837.064 1.352-.451 2.318-1.997l22.533-41.163c1.996-3.543 5.344-3.543 5.344-3.543h16.288V82.274h-25.366c-4.635 0-6.953 3.865-6.953 3.865ZM120.727 146.307c0 1.546-1.159 2.705-2.704 2.705-1.546 0-2.704-1.159-2.704-2.705s1.158-2.705 2.704-2.705c1.545 0 2.704 1.223 2.704 2.705Zm-4.958 0c0 1.288.966 2.319 2.254 2.319 1.287 0 2.253-1.031 2.253-2.319s-.966-2.319-2.253-2.319c-1.288 0-2.254 1.031-2.254 2.319Zm1.674 1.61h-.386v-3.092h1.223c.708 0 1.03.322 1.03.838 0 .58-.385.772-.772.837l.902 1.353h-.452l-.901-1.353h-.644v1.417Zm.515-1.739c.451 0 .967 0 .967-.515 0-.452-.387-.516-.709-.516h-.708v1.096h.45v-.065Z"/></g></svg>